G04 start of page 8 for group -4078 idx -4078 *
G04 Title: (unknown), bottomsilk *
G04 Creator: pcb 20091103 *
G04 CreationDate: Thu 05 May 2011 07:25:20 AM GMT UTC *
G04 For: gjhurlbu *
G04 Format: Gerber/RS-274X *
G04 PCB-Dimensions: 600000 500000 *
G04 PCB-Coordinate-Origin: lower left *
%MOIN*%
%FSLAX25Y25*%
%LNBACKSILK*%
%ADD42C,0.0100*%
%ADD43C,0.0080*%
G54D43*X73852Y425936D02*Y425150D01*
X79362Y425936D02*Y425150D01*
Y409850D02*Y409064D01*
X73852Y409850D02*Y409064D01*
Y441150D02*Y441936D01*
X79362Y441150D02*Y441936D01*
X82066Y441150D02*Y441936D01*
X87576Y441150D02*Y441936D01*
G54D42*X82300Y421338D02*X86300D01*
X82300D02*Y423338D01*
Y425039D02*Y426039D01*
Y425539D02*X86300D01*
X85300Y424539D02*X86300Y425539D01*
X69486Y441086D02*X70986D01*
X71486Y441586D02*X70986Y441086D01*
X71486Y441586D02*Y444586D01*
X70986Y445086D01*
X69486D02*X70986D01*
X68285Y444586D02*X67785Y445086D01*
X66285D02*X67785D01*
X66285D02*X65785Y444586D01*
Y443586D02*Y444586D01*
X68285Y441086D02*X65785Y443586D01*
Y441086D02*X68285D01*
X92764Y442620D02*X94264D01*
X94764Y443120D02*X94264Y442620D01*
X94764Y443120D02*Y446120D01*
X94264Y446620D01*
X92764D02*X94264D01*
X91563Y446120D02*X91063Y446620D01*
X90063D02*X91063D01*
X90063D02*X89563Y446120D01*
Y443120D02*Y446120D01*
X90063Y442620D02*X89563Y443120D01*
X90063Y442620D02*X91063D01*
X91563Y443120D02*X91063Y442620D01*
X89563Y444620D02*X91063D01*
X76978Y397192D02*X78478D01*
X78978Y397692D02*X78478Y397192D01*
X78978Y397692D02*Y400692D01*
X78478Y401192D01*
X76978D02*X78478D01*
X74277Y397192D02*X75277D01*
X74777D02*Y401192D01*
X75777Y400192D02*X74777Y401192D01*
M02*
