G04 start of page 2 for group 0 idx 0 *
G04 Title: (unknown), component *
G04 Creator: pcb 20091103 *
G04 CreationDate: Thu 05 May 2011 07:25:20 AM GMT UTC *
G04 For: gjhurlbu *
G04 Format: Gerber/RS-274X *
G04 PCB-Dimensions: 600000 500000 *
G04 PCB-Coordinate-Origin: lower left *
%MOIN*%
%FSLAX25Y25*%
%LNFRONT*%
%ADD11C,0.0150*%
%ADD12C,0.0200*%
%ADD13C,0.1200*%
%ADD14C,0.0750*%
%ADD15C,0.0600*%
%ADD16C,0.0800*%
%ADD17C,0.0360*%
%ADD18R,0.0158X0.0158*%
%ADD19R,0.0551X0.0551*%
%ADD20R,0.0276X0.0276*%
%ADD21R,0.0512X0.0512*%
%ADD22R,0.0561X0.0561*%
%ADD23R,0.0160X0.0160*%
%ADD24R,0.0340X0.0340*%
%ADD25C,0.0160*%
%ADD26C,0.0630*%
%ADD27C,0.0520*%
%ADD28C,0.0260*%
%ADD29C,0.0380*%
%ADD30C,0.0390*%
G54D11*X65435Y419907D02*X65907D01*
X69000Y423000D01*
X65435Y409671D02*X67329D01*
X69000Y408000D01*
X57078Y401024D02*Y398922D01*
X59000Y397000D01*
X62196Y402400D02*Y400196D01*
X59000Y397000D01*
X65435Y414789D02*X76211D01*
X65435Y417348D02*X77652D01*
X76211Y414789D02*X84000Y407000D01*
X87200Y407800D02*X77652Y417348D01*
X84600Y406400D02*X83000Y408000D01*
X78914Y393786D02*X72214D01*
X72000Y394000D01*
X84600Y402400D02*Y406400D01*
X87200Y402400D02*Y407800D01*
X92300Y400200D02*Y398700D01*
X89700Y400200D02*Y396700D01*
X86000Y393000D01*
X92300Y398700D02*X96000Y395000D01*
X100000Y400200D02*Y399000D01*
X96000Y395000D01*
X110300Y429300D02*Y426300D01*
X97400Y413400D01*
X102600Y429300D02*Y426600D01*
X101000Y425000D01*
X97400Y402400D02*Y413400D01*
X110200Y402400D02*Y406200D01*
X112000Y408000D01*
X112800Y402400D02*Y407200D01*
X105100Y400200D02*Y391100D01*
X105000Y391000D01*
X112086D02*X122400D01*
X115200Y383200D02*X115000Y383000D01*
X122400Y383200D02*X115200D01*
X131200Y387100D02*X134900D01*
X140000Y382000D01*
X168000D01*
X175000Y375000D01*
X205000D02*X196000D01*
X150000Y421000D01*
X112800Y407200D02*X112000Y408000D01*
X175000Y415000D02*X176000D01*
X184000Y423000D01*
X205000Y415000D02*Y407000D01*
Y445000D02*X235000D01*
Y435000D02*X185000D01*
X175000Y445000D01*
X184000Y423000D02*X223800D01*
X229900Y416900D01*
X205000Y407000D02*X219000Y393000D01*
X231600D01*
X231900Y393300D01*
X150000Y421000D02*Y442000D01*
X62196Y427600D02*Y429804D01*
X59000Y433000D01*
X57078Y428976D02*Y431078D01*
X59000Y433000D01*
X51517Y421348D02*X55897Y425728D01*
X51517Y411211D02*Y408652D01*
X55897Y404272D01*
X51517Y421348D02*Y411211D01*
G54D12*G36*
X144000Y388000D02*Y376000D01*
X156000D01*
Y388000D01*
X144000D01*
G37*
G54D13*X150000Y442000D03*
G54D14*X175000Y375000D03*
G54D12*G36*
X60546Y426847D02*Y422247D01*
X65146D01*
Y426847D01*
X60546D01*
G37*
G36*
X59777D02*Y422247D01*
X64377D01*
Y426847D01*
X59777D01*
G37*
G36*
X59008D02*Y422247D01*
X63608D01*
Y426847D01*
X59008D01*
G37*
G36*
X47022Y428028D02*Y423428D01*
X51622D01*
Y428028D01*
X47022D01*
G37*
G36*
X48085D02*Y423428D01*
X52685D01*
Y428028D01*
X48085D01*
G37*
G36*
X49148D02*Y423428D01*
X53748D01*
Y428028D01*
X49148D01*
G37*
G36*
X60546Y407753D02*Y403153D01*
X65146D01*
Y407753D01*
X60546D01*
G37*
G36*
X59777D02*Y403153D01*
X64377D01*
Y407753D01*
X59777D01*
G37*
G36*
X59008D02*Y403153D01*
X63608D01*
Y407753D01*
X59008D01*
G37*
G36*
X47022Y406572D02*Y401972D01*
X51622D01*
Y406572D01*
X47022D01*
G37*
G36*
X48085D02*Y401972D01*
X52685D01*
Y406572D01*
X48085D01*
G37*
G36*
X49148D02*Y401972D01*
X53748D01*
Y406572D01*
X49148D01*
G37*
G36*
X232000Y438000D02*Y432000D01*
X238000D01*
Y438000D01*
X232000D01*
G37*
G54D15*X235000Y445000D03*
G54D14*X175000D03*
Y415000D03*
G54D16*X231900Y394300D03*
X233800D03*
X235800D03*
X237700D03*
X239700D03*
X241600D03*
X229900Y417900D03*
X231900D03*
X233800D03*
X235800D03*
X237700D03*
X239700D03*
X241600D03*
X243600D03*
X245500D03*
X243600Y394300D03*
G54D12*G36*
X201250Y378750D02*Y371250D01*
X208750D01*
Y378750D01*
X201250D01*
G37*
G54D14*X205000Y415000D03*
Y445000D03*
G54D17*X69000Y408000D03*
X96000Y395000D03*
X72000Y394000D03*
X69000Y423000D03*
X70000Y445000D03*
X109000Y425000D03*
X101000D03*
X112000Y408000D03*
X115000Y383000D03*
X59000Y397000D03*
Y433000D03*
G54D18*X58456Y420118D02*X64952D01*
G54D19*X62196Y427600D02*Y425236D01*
G54D20*X57078Y428976D02*Y424547D01*
G54D21*X48220Y425728D02*X55897D01*
G54D22*X47285Y418789D02*X51517D01*
G54D18*X58456Y417559D02*X64952D01*
X58456Y415000D02*X64952D01*
X58456Y412441D02*X64952D01*
X58456Y409882D02*X64952D01*
G54D19*X62196Y404764D02*Y402400D01*
G54D20*X57078Y405453D02*Y401024D01*
G54D21*X48220Y404272D02*X55897D01*
G54D22*X47285Y411211D02*X51517D01*
G54D23*X84600Y402400D02*Y400200D01*
X87200Y402400D02*Y400200D01*
X89700Y402400D02*Y400200D01*
X92300Y402400D02*Y400200D01*
G54D21*X86000Y393786D02*Y393000D01*
X78914Y393786D02*Y393000D01*
G54D23*X94900Y402400D02*Y400200D01*
X97400Y402400D02*Y400200D01*
X100000Y402400D02*Y400200D01*
X102500Y402400D02*Y400200D01*
X105100Y402400D02*Y400200D01*
X107700Y402400D02*Y400200D01*
X110200Y402400D02*Y400200D01*
X112800Y402400D02*Y400200D01*
G54D21*X105000Y391000D02*Y390214D01*
G54D23*X115300Y402400D02*Y400200D01*
X117900Y402400D02*Y400200D01*
G54D21*X112086Y391000D02*Y390214D01*
G54D24*X122400Y391000D02*X123000D01*
X122400Y383200D02*X123000D01*
X130600Y387100D02*X131200D01*
G54D23*X84700Y431500D02*Y429300D01*
G54D25*X118000Y431500D02*Y429300D01*
G54D23*X115400Y431500D02*Y429300D01*
X112900Y431500D02*Y429300D01*
X110300Y431500D02*Y429300D01*
X107700Y431500D02*Y429300D01*
X105200Y431500D02*Y429300D01*
X102600Y431500D02*Y429300D01*
X100100Y431500D02*Y429300D01*
X97500Y431500D02*Y429300D01*
X94900Y431500D02*Y429300D01*
X92400Y431500D02*Y429300D01*
X89800Y431500D02*Y429300D01*
X87300Y431500D02*Y429300D01*
G54D26*G54D27*G54D28*G54D29*G54D27*G54D30*G54D27*G54D12*M02*
