G04 start of page 3 for group 1 idx 1 *
G04 Title: (unknown), solder *
G04 Creator: pcb 20091103 *
G04 CreationDate: Thu 05 May 2011 07:25:20 AM GMT UTC *
G04 For: gjhurlbu *
G04 Format: Gerber/RS-274X *
G04 PCB-Dimensions: 600000 500000 *
G04 PCB-Coordinate-Origin: lower left *
%MOIN*%
%FSLAX25Y25*%
%LNBACK*%
%ADD11C,0.0150*%
%ADD12C,0.0200*%
%ADD13C,0.1200*%
%ADD14C,0.0750*%
%ADD15C,0.0600*%
%ADD16C,0.0800*%
%ADD17C,0.0360*%
%ADD21R,0.0512X0.0512*%
%ADD26C,0.0630*%
%ADD27C,0.0520*%
%ADD28C,0.0260*%
%ADD29C,0.0380*%
%ADD30C,0.0390*%
G54D12*G36*
X237750Y454000D02*X257000D01*
Y363000D01*
X237750D01*
Y388304D01*
X238700Y388387D01*
X239700Y388300D01*
X240650Y388383D01*
X241600Y388300D01*
X242600Y388387D01*
X243600Y388300D01*
X244642Y388391D01*
X245652Y388662D01*
X246600Y389104D01*
X247457Y389704D01*
X248196Y390443D01*
X248796Y391300D01*
X249238Y392248D01*
X249509Y393258D01*
X249600Y394300D01*
X249509Y395342D01*
X249238Y396352D01*
X248796Y397300D01*
X248196Y398157D01*
X247457Y398896D01*
X246600Y399496D01*
X245652Y399938D01*
X244642Y400209D01*
X243600Y400300D01*
X242600Y400213D01*
X241600Y400300D01*
X240650Y400217D01*
X239700Y400300D01*
X238700Y400213D01*
X237750Y400296D01*
Y411904D01*
X238700Y411987D01*
X239700Y411900D01*
X240650Y411983D01*
X241600Y411900D01*
X242600Y411987D01*
X243600Y411900D01*
X244550Y411983D01*
X245500Y411900D01*
X246542Y411991D01*
X247552Y412262D01*
X248500Y412704D01*
X249357Y413304D01*
X250096Y414043D01*
X250696Y414900D01*
X251138Y415848D01*
X251409Y416858D01*
X251500Y417900D01*
X251409Y418942D01*
X251138Y419952D01*
X250696Y420900D01*
X250096Y421757D01*
X249357Y422496D01*
X248500Y423096D01*
X247552Y423538D01*
X246542Y423809D01*
X245500Y423900D01*
X244550Y423817D01*
X243600Y423900D01*
X242600Y423813D01*
X241600Y423900D01*
X240650Y423817D01*
X239700Y423900D01*
X238700Y423813D01*
X237750Y423896D01*
Y430500D01*
X238000D01*
X238260Y430523D01*
X238513Y430590D01*
X238750Y430701D01*
X238964Y430851D01*
X239149Y431036D01*
X239299Y431250D01*
X239410Y431487D01*
X239477Y431740D01*
X239500Y432000D01*
Y438000D01*
X239477Y438260D01*
X239410Y438513D01*
X239299Y438750D01*
X239149Y438964D01*
X238964Y439149D01*
X238750Y439299D01*
X238513Y439410D01*
X238260Y439477D01*
X238000Y439500D01*
X237750D01*
Y441453D01*
X237893Y441553D01*
X238447Y442107D01*
X238897Y442750D01*
X239229Y443461D01*
X239432Y444219D01*
X239500Y445000D01*
X239432Y445781D01*
X239229Y446539D01*
X238897Y447250D01*
X238447Y447893D01*
X237893Y448447D01*
X237750Y448547D01*
Y454000D01*
G37*
G36*
X205000D02*X237750D01*
Y448547D01*
X237250Y448897D01*
X236539Y449229D01*
X235781Y449432D01*
X235000Y449500D01*
X234219Y449432D01*
X233461Y449229D01*
X232750Y448897D01*
X232107Y448447D01*
X231553Y447893D01*
X231103Y447250D01*
X230771Y446539D01*
X230568Y445781D01*
X230500Y445000D01*
X230568Y444219D01*
X230771Y443461D01*
X231103Y442750D01*
X231553Y442107D01*
X232107Y441553D01*
X232750Y441103D01*
X233461Y440771D01*
X234219Y440568D01*
X235000Y440500D01*
X235781Y440568D01*
X236539Y440771D01*
X237250Y441103D01*
X237750Y441453D01*
Y439500D01*
X232000D01*
X231740Y439477D01*
X231487Y439410D01*
X231250Y439299D01*
X231036Y439149D01*
X230851Y438964D01*
X230701Y438750D01*
X230590Y438513D01*
X230523Y438260D01*
X230500Y438000D01*
Y432000D01*
X230523Y431740D01*
X230590Y431487D01*
X230701Y431250D01*
X230851Y431036D01*
X231036Y430851D01*
X231250Y430701D01*
X231487Y430590D01*
X231740Y430523D01*
X232000Y430500D01*
X237750D01*
Y423896D01*
X237700Y423900D01*
X236750Y423817D01*
X235800Y423900D01*
X234800Y423813D01*
X233800Y423900D01*
X232850Y423817D01*
X231900Y423900D01*
X230900Y423813D01*
X229900Y423900D01*
X228858Y423809D01*
X227848Y423538D01*
X226900Y423096D01*
X226043Y422496D01*
X225304Y421757D01*
X224704Y420900D01*
X224262Y419952D01*
X223991Y418942D01*
X223900Y417900D01*
X223991Y416858D01*
X224262Y415848D01*
X224704Y414900D01*
X225304Y414043D01*
X226043Y413304D01*
X226900Y412704D01*
X227848Y412262D01*
X228858Y411991D01*
X229900Y411900D01*
X230900Y411987D01*
X231900Y411900D01*
X232850Y411983D01*
X233800Y411900D01*
X234800Y411987D01*
X235800Y411900D01*
X236750Y411983D01*
X237700Y411900D01*
X237750Y411904D01*
Y400296D01*
X237700Y400300D01*
X236750Y400217D01*
X235800Y400300D01*
X234800Y400213D01*
X233800Y400300D01*
X232850Y400217D01*
X231900Y400300D01*
X230858Y400209D01*
X229848Y399938D01*
X228900Y399496D01*
X228043Y398896D01*
X227304Y398157D01*
X226704Y397300D01*
X226262Y396352D01*
X225991Y395342D01*
X225900Y394300D01*
X225991Y393258D01*
X226262Y392248D01*
X226704Y391300D01*
X227304Y390443D01*
X228043Y389704D01*
X228900Y389104D01*
X229848Y388662D01*
X230858Y388391D01*
X231900Y388300D01*
X232850Y388383D01*
X233800Y388300D01*
X234800Y388387D01*
X235800Y388300D01*
X236750Y388383D01*
X237700Y388300D01*
X237750Y388304D01*
Y363000D01*
X205000D01*
Y370250D01*
X208750D01*
X208924Y370265D01*
X209092Y370310D01*
X209250Y370384D01*
X209393Y370484D01*
X209516Y370607D01*
X209616Y370750D01*
X209690Y370908D01*
X209735Y371076D01*
X209750Y371250D01*
Y378750D01*
X209735Y378924D01*
X209690Y379092D01*
X209616Y379250D01*
X209516Y379393D01*
X209393Y379516D01*
X209250Y379616D01*
X209092Y379690D01*
X208924Y379735D01*
X208750Y379750D01*
X205000D01*
Y410250D01*
X205825Y410322D01*
X206625Y410536D01*
X207375Y410886D01*
X208053Y411361D01*
X208639Y411947D01*
X209114Y412625D01*
X209464Y413375D01*
X209678Y414175D01*
X209750Y415000D01*
X209678Y415825D01*
X209464Y416625D01*
X209114Y417375D01*
X208639Y418053D01*
X208053Y418639D01*
X207375Y419114D01*
X206625Y419464D01*
X205825Y419678D01*
X205000Y419750D01*
Y440250D01*
X205825Y440322D01*
X206625Y440536D01*
X207375Y440886D01*
X208053Y441361D01*
X208639Y441947D01*
X209114Y442625D01*
X209464Y443375D01*
X209678Y444175D01*
X209750Y445000D01*
X209678Y445825D01*
X209464Y446625D01*
X209114Y447375D01*
X208639Y448053D01*
X208053Y448639D01*
X207375Y449114D01*
X206625Y449464D01*
X205825Y449678D01*
X205000Y449750D01*
Y454000D01*
G37*
G36*
X175000D02*X205000D01*
Y449750D01*
X204175Y449678D01*
X203375Y449464D01*
X202625Y449114D01*
X201947Y448639D01*
X201361Y448053D01*
X200886Y447375D01*
X200536Y446625D01*
X200322Y445825D01*
X200250Y445000D01*
X200322Y444175D01*
X200536Y443375D01*
X200886Y442625D01*
X201361Y441947D01*
X201947Y441361D01*
X202625Y440886D01*
X203375Y440536D01*
X204175Y440322D01*
X205000Y440250D01*
Y419750D01*
X204175Y419678D01*
X203375Y419464D01*
X202625Y419114D01*
X201947Y418639D01*
X201361Y418053D01*
X200886Y417375D01*
X200536Y416625D01*
X200322Y415825D01*
X200250Y415000D01*
X200322Y414175D01*
X200536Y413375D01*
X200886Y412625D01*
X201361Y411947D01*
X201947Y411361D01*
X202625Y410886D01*
X203375Y410536D01*
X204175Y410322D01*
X205000Y410250D01*
Y379750D01*
X201250D01*
X201076Y379735D01*
X200908Y379690D01*
X200750Y379616D01*
X200607Y379516D01*
X200484Y379393D01*
X200384Y379250D01*
X200310Y379092D01*
X200265Y378924D01*
X200250Y378750D01*
Y371250D01*
X200265Y371076D01*
X200310Y370908D01*
X200384Y370750D01*
X200484Y370607D01*
X200607Y370484D01*
X200750Y370384D01*
X200908Y370310D01*
X201076Y370265D01*
X201250Y370250D01*
X205000D01*
Y363000D01*
X175000D01*
Y370250D01*
X175825Y370322D01*
X176625Y370536D01*
X177375Y370886D01*
X178053Y371361D01*
X178639Y371947D01*
X179114Y372625D01*
X179464Y373375D01*
X179678Y374175D01*
X179750Y375000D01*
X179678Y375825D01*
X179464Y376625D01*
X179114Y377375D01*
X178639Y378053D01*
X178053Y378639D01*
X177375Y379114D01*
X176625Y379464D01*
X175825Y379678D01*
X175000Y379750D01*
Y410250D01*
X175825Y410322D01*
X176625Y410536D01*
X177375Y410886D01*
X178053Y411361D01*
X178639Y411947D01*
X179114Y412625D01*
X179464Y413375D01*
X179678Y414175D01*
X179750Y415000D01*
X179678Y415825D01*
X179464Y416625D01*
X179114Y417375D01*
X178639Y418053D01*
X178053Y418639D01*
X177375Y419114D01*
X176625Y419464D01*
X175825Y419678D01*
X175000Y419750D01*
Y440250D01*
X175825Y440322D01*
X176625Y440536D01*
X177375Y440886D01*
X178053Y441361D01*
X178639Y441947D01*
X179114Y442625D01*
X179464Y443375D01*
X179678Y444175D01*
X179750Y445000D01*
X179678Y445825D01*
X179464Y446625D01*
X179114Y447375D01*
X178639Y448053D01*
X178053Y448639D01*
X177375Y449114D01*
X176625Y449464D01*
X175825Y449678D01*
X175000Y449750D01*
Y454000D01*
G37*
G36*
X150000D02*X175000D01*
Y449750D01*
X174175Y449678D01*
X173375Y449464D01*
X172625Y449114D01*
X171947Y448639D01*
X171361Y448053D01*
X170886Y447375D01*
X170536Y446625D01*
X170322Y445825D01*
X170250Y445000D01*
X170322Y444175D01*
X170536Y443375D01*
X170886Y442625D01*
X171361Y441947D01*
X171947Y441361D01*
X172625Y440886D01*
X173375Y440536D01*
X174175Y440322D01*
X175000Y440250D01*
Y419750D01*
X174175Y419678D01*
X173375Y419464D01*
X172625Y419114D01*
X171947Y418639D01*
X171361Y418053D01*
X170886Y417375D01*
X170536Y416625D01*
X170322Y415825D01*
X170250Y415000D01*
X170322Y414175D01*
X170536Y413375D01*
X170886Y412625D01*
X171361Y411947D01*
X171947Y411361D01*
X172625Y410886D01*
X173375Y410536D01*
X174175Y410322D01*
X175000Y410250D01*
Y379750D01*
X174175Y379678D01*
X173375Y379464D01*
X172625Y379114D01*
X171947Y378639D01*
X171361Y378053D01*
X170886Y377375D01*
X170536Y376625D01*
X170322Y375825D01*
X170250Y375000D01*
X170322Y374175D01*
X170536Y373375D01*
X170886Y372625D01*
X171361Y371947D01*
X171947Y371361D01*
X172625Y370886D01*
X173375Y370536D01*
X174175Y370322D01*
X175000Y370250D01*
Y363000D01*
X150000D01*
Y374000D01*
X156000D01*
X156347Y374030D01*
X156684Y374121D01*
X157000Y374268D01*
X157286Y374468D01*
X157532Y374714D01*
X157732Y375000D01*
X157879Y375316D01*
X157970Y375653D01*
X158000Y376000D01*
Y388000D01*
X157970Y388347D01*
X157879Y388684D01*
X157732Y389000D01*
X157532Y389286D01*
X157286Y389532D01*
X157000Y389732D01*
X156684Y389879D01*
X156347Y389970D01*
X156000Y390000D01*
X150000D01*
Y434000D01*
X151389Y434122D01*
X152736Y434482D01*
X154000Y435072D01*
X155142Y435872D01*
X156128Y436858D01*
X156928Y438000D01*
X157518Y439264D01*
X157878Y440611D01*
X158000Y442000D01*
X157878Y443389D01*
X157518Y444736D01*
X156928Y446000D01*
X156128Y447142D01*
X155142Y448128D01*
X154000Y448928D01*
X152736Y449518D01*
X151389Y449878D01*
X150000Y450000D01*
Y454000D01*
G37*
G36*
Y363000D02*X117231D01*
Y381720D01*
X117248Y381721D01*
X117332Y381744D01*
X117411Y381781D01*
X117483Y381831D01*
X117544Y381893D01*
X117594Y381964D01*
X117631Y382043D01*
X117704Y382276D01*
X117757Y382514D01*
X117789Y382756D01*
X117800Y383000D01*
X117789Y383245D01*
X117757Y383487D01*
X117704Y383725D01*
X117631Y383958D01*
X117594Y384037D01*
X117544Y384108D01*
X117483Y384170D01*
X117411Y384220D01*
X117332Y384257D01*
X117248Y384280D01*
X117231Y384281D01*
Y440250D01*
X142218D01*
X142482Y439264D01*
X143072Y438000D01*
X143872Y436858D01*
X144858Y435872D01*
X146000Y435072D01*
X147264Y434482D01*
X148611Y434122D01*
X150000Y434000D01*
Y390000D01*
X144000D01*
X143653Y389970D01*
X143316Y389879D01*
X143000Y389732D01*
X142714Y389532D01*
X142468Y389286D01*
X142268Y389000D01*
X142121Y388684D01*
X142030Y388347D01*
X142000Y388000D01*
Y376000D01*
X142030Y375653D01*
X142121Y375316D01*
X142268Y375000D01*
X142468Y374714D01*
X142714Y374468D01*
X143000Y374268D01*
X143316Y374121D01*
X143653Y374030D01*
X144000Y374000D01*
X150000D01*
Y363000D01*
G37*
G36*
X117231D02*X115000D01*
Y380200D01*
X115244Y380211D01*
X115486Y380243D01*
X115724Y380296D01*
X115957Y380369D01*
X116036Y380406D01*
X116107Y380456D01*
X116169Y380517D01*
X116219Y380589D01*
X116256Y380668D01*
X116279Y380752D01*
X116286Y380839D01*
X116279Y380926D01*
X116256Y381010D01*
X116219Y381089D01*
X116169Y381160D01*
X116108Y381222D01*
X116036Y381272D01*
X115957Y381309D01*
X115873Y381332D01*
X115786Y381339D01*
X115699Y381332D01*
X115615Y381309D01*
X115465Y381262D01*
X115312Y381228D01*
X115156Y381207D01*
X115000Y381200D01*
Y384800D01*
X115156Y384794D01*
X115312Y384773D01*
X115465Y384739D01*
X115615Y384692D01*
X115699Y384669D01*
X115786Y384662D01*
X115873Y384669D01*
X115957Y384692D01*
X116036Y384729D01*
X116108Y384779D01*
X116169Y384841D01*
X116219Y384912D01*
X116256Y384991D01*
X116279Y385075D01*
X116286Y385162D01*
X116279Y385249D01*
X116256Y385333D01*
X116219Y385412D01*
X116169Y385484D01*
X116107Y385545D01*
X116036Y385595D01*
X115957Y385632D01*
X115724Y385705D01*
X115486Y385758D01*
X115244Y385790D01*
X115000Y385800D01*
Y440250D01*
X117231D01*
Y384281D01*
X117161Y384287D01*
X117074Y384280D01*
X116990Y384257D01*
X116911Y384220D01*
X116840Y384170D01*
X116778Y384109D01*
X116728Y384037D01*
X116691Y383958D01*
X116668Y383874D01*
X116661Y383787D01*
X116668Y383700D01*
X116691Y383616D01*
X116738Y383466D01*
X116772Y383313D01*
X116793Y383157D01*
X116800Y383000D01*
X116793Y382844D01*
X116772Y382688D01*
X116738Y382535D01*
X116691Y382385D01*
X116668Y382301D01*
X116661Y382214D01*
X116668Y382127D01*
X116691Y382043D01*
X116728Y381964D01*
X116778Y381892D01*
X116840Y381831D01*
X116911Y381781D01*
X116990Y381744D01*
X117074Y381721D01*
X117161Y381714D01*
X117231Y381720D01*
Y363000D01*
G37*
G36*
X114231Y384663D02*X114300Y384669D01*
X114384Y384692D01*
X114534Y384739D01*
X114687Y384773D01*
X114843Y384794D01*
X115000Y384800D01*
Y381200D01*
X114999D01*
X114843Y381207D01*
X114687Y381228D01*
X114534Y381262D01*
X114384Y381309D01*
X114300Y381332D01*
X114231Y381338D01*
Y384663D01*
G37*
G36*
Y440250D02*X115000D01*
Y385800D01*
X114755Y385790D01*
X114513Y385758D01*
X114275Y385705D01*
X114231Y385691D01*
Y406720D01*
X114248Y406721D01*
X114332Y406744D01*
X114411Y406781D01*
X114483Y406831D01*
X114544Y406893D01*
X114594Y406964D01*
X114631Y407043D01*
X114704Y407276D01*
X114757Y407514D01*
X114789Y407756D01*
X114800Y408000D01*
X114789Y408245D01*
X114757Y408487D01*
X114704Y408725D01*
X114631Y408958D01*
X114594Y409037D01*
X114544Y409108D01*
X114483Y409170D01*
X114411Y409220D01*
X114332Y409257D01*
X114248Y409280D01*
X114231Y409281D01*
Y440250D01*
G37*
G36*
X115000Y363000D02*X114231D01*
Y380310D01*
X114275Y380296D01*
X114513Y380243D01*
X114755Y380211D01*
X114999Y380200D01*
X115000D01*
Y363000D01*
G37*
G36*
X114231D02*X112769D01*
Y381720D01*
X112838Y381714D01*
X112925Y381721D01*
X113009Y381744D01*
X113088Y381781D01*
X113159Y381831D01*
X113221Y381892D01*
X113271Y381964D01*
X113308Y382043D01*
X113331Y382127D01*
X113338Y382214D01*
X113331Y382301D01*
X113308Y382385D01*
X113261Y382535D01*
X113227Y382688D01*
X113206Y382844D01*
X113200Y383001D01*
X113206Y383157D01*
X113227Y383313D01*
X113261Y383466D01*
X113308Y383616D01*
X113331Y383700D01*
X113338Y383787D01*
X113331Y383874D01*
X113308Y383958D01*
X113271Y384037D01*
X113221Y384109D01*
X113159Y384170D01*
X113088Y384220D01*
X113009Y384257D01*
X112925Y384280D01*
X112838Y384287D01*
X112769Y384281D01*
Y405310D01*
X112957Y405369D01*
X113036Y405406D01*
X113107Y405456D01*
X113169Y405517D01*
X113219Y405589D01*
X113256Y405668D01*
X113279Y405752D01*
X113286Y405839D01*
X113279Y405926D01*
X113256Y406010D01*
X113219Y406089D01*
X113169Y406160D01*
X113108Y406222D01*
X113036Y406272D01*
X112957Y406309D01*
X112873Y406332D01*
X112786Y406339D01*
X112769Y406338D01*
Y409663D01*
X112786Y409662D01*
X112873Y409669D01*
X112957Y409692D01*
X113036Y409729D01*
X113108Y409779D01*
X113169Y409841D01*
X113219Y409912D01*
X113256Y409991D01*
X113279Y410075D01*
X113286Y410162D01*
X113279Y410249D01*
X113256Y410333D01*
X113219Y410412D01*
X113169Y410484D01*
X113107Y410545D01*
X113036Y410595D01*
X112957Y410632D01*
X112769Y410691D01*
Y440250D01*
X114231D01*
Y409281D01*
X114161Y409287D01*
X114074Y409280D01*
X113990Y409257D01*
X113911Y409220D01*
X113840Y409170D01*
X113778Y409109D01*
X113728Y409037D01*
X113691Y408958D01*
X113668Y408874D01*
X113661Y408787D01*
X113668Y408700D01*
X113691Y408616D01*
X113738Y408466D01*
X113772Y408313D01*
X113793Y408157D01*
X113800Y408000D01*
X113793Y407844D01*
X113772Y407688D01*
X113738Y407535D01*
X113691Y407385D01*
X113668Y407301D01*
X113661Y407214D01*
X113668Y407127D01*
X113691Y407043D01*
X113728Y406964D01*
X113778Y406892D01*
X113840Y406831D01*
X113911Y406781D01*
X113990Y406744D01*
X114074Y406721D01*
X114161Y406714D01*
X114231Y406720D01*
Y385691D01*
X114042Y385632D01*
X113963Y385595D01*
X113892Y385545D01*
X113830Y385484D01*
X113780Y385412D01*
X113743Y385333D01*
X113720Y385249D01*
X113713Y385162D01*
X113720Y385075D01*
X113743Y384991D01*
X113780Y384912D01*
X113830Y384841D01*
X113891Y384779D01*
X113963Y384729D01*
X114042Y384692D01*
X114126Y384669D01*
X114213Y384662D01*
X114231Y384663D01*
Y381338D01*
X114213Y381339D01*
X114126Y381332D01*
X114042Y381309D01*
X113963Y381272D01*
X113891Y381222D01*
X113830Y381160D01*
X113780Y381089D01*
X113743Y381010D01*
X113720Y380926D01*
X113713Y380839D01*
X113720Y380752D01*
X113743Y380668D01*
X113780Y380589D01*
X113830Y380517D01*
X113892Y380456D01*
X113963Y380406D01*
X114042Y380369D01*
X114231Y380310D01*
Y363000D01*
G37*
G36*
X112769Y410691D02*X112724Y410705D01*
X112486Y410758D01*
X112244Y410790D01*
X112100Y410796D01*
Y440250D01*
X112769D01*
Y410691D01*
G37*
G36*
Y406338D02*X112699Y406332D01*
X112615Y406309D01*
X112465Y406262D01*
X112312Y406228D01*
X112156Y406207D01*
X112100Y406205D01*
Y409796D01*
X112156Y409794D01*
X112312Y409773D01*
X112465Y409739D01*
X112615Y409692D01*
X112699Y409669D01*
X112769Y409663D01*
Y406338D01*
G37*
G36*
Y363000D02*X112100D01*
Y405205D01*
X112244Y405211D01*
X112486Y405243D01*
X112724Y405296D01*
X112769Y405310D01*
Y384281D01*
X112751Y384280D01*
X112667Y384257D01*
X112588Y384220D01*
X112516Y384170D01*
X112455Y384108D01*
X112405Y384037D01*
X112368Y383958D01*
X112295Y383725D01*
X112242Y383487D01*
X112210Y383245D01*
X112200Y383001D01*
X112210Y382756D01*
X112242Y382514D01*
X112295Y382276D01*
X112368Y382043D01*
X112405Y381964D01*
X112455Y381893D01*
X112516Y381831D01*
X112588Y381781D01*
X112667Y381744D01*
X112751Y381721D01*
X112769Y381720D01*
Y363000D01*
G37*
G36*
X112100Y454000D02*X150000D01*
Y450000D01*
X148611Y449878D01*
X147264Y449518D01*
X146000Y448928D01*
X144858Y448128D01*
X143872Y447142D01*
X143072Y446000D01*
X142482Y444736D01*
X142218Y443750D01*
X112100D01*
Y454000D01*
G37*
G36*
X109769Y422319D02*X109958Y422369D01*
X110400Y422575D01*
X110800Y422855D01*
X111145Y423200D01*
X111425Y423600D01*
X111631Y424042D01*
X111757Y424514D01*
X111800Y425000D01*
X111757Y425486D01*
X111631Y425958D01*
X111425Y426400D01*
X111145Y426800D01*
X110800Y427145D01*
X110750Y427180D01*
Y435000D01*
X110743Y435079D01*
Y435153D01*
X110730Y435229D01*
X110723Y435304D01*
X110704Y435376D01*
X110690Y435454D01*
X110663Y435528D01*
X110644Y435599D01*
X110613Y435666D01*
X110586Y435740D01*
X110550Y435803D01*
X110516Y435875D01*
X110468Y435943D01*
X110433Y436004D01*
X110388Y436058D01*
X110341Y436125D01*
X110283Y436183D01*
X110237Y436238D01*
X109769Y436706D01*
Y439295D01*
X110724Y440250D01*
X112100D01*
Y410796D01*
X112000Y410800D01*
X111755Y410790D01*
X111513Y410758D01*
X111275Y410705D01*
X111042Y410632D01*
X110963Y410595D01*
X110892Y410545D01*
X110830Y410484D01*
X110780Y410412D01*
X110743Y410333D01*
X110720Y410249D01*
X110713Y410162D01*
X110720Y410075D01*
X110743Y409991D01*
X110780Y409912D01*
X110830Y409841D01*
X110891Y409779D01*
X110963Y409729D01*
X111042Y409692D01*
X111126Y409669D01*
X111213Y409662D01*
X111300Y409669D01*
X111384Y409692D01*
X111534Y409739D01*
X111687Y409773D01*
X111843Y409794D01*
X112000Y409800D01*
X112100Y409796D01*
Y406205D01*
X111999Y406200D01*
X111843Y406207D01*
X111687Y406228D01*
X111534Y406262D01*
X111384Y406309D01*
X111300Y406332D01*
X111213Y406339D01*
X111126Y406332D01*
X111042Y406309D01*
X110963Y406272D01*
X110891Y406222D01*
X110830Y406160D01*
X110780Y406089D01*
X110743Y406010D01*
X110720Y405926D01*
X110713Y405839D01*
X110720Y405752D01*
X110743Y405668D01*
X110780Y405589D01*
X110830Y405517D01*
X110892Y405456D01*
X110963Y405406D01*
X111042Y405369D01*
X111275Y405296D01*
X111513Y405243D01*
X111755Y405211D01*
X111999Y405200D01*
X112100Y405205D01*
Y363000D01*
X109769D01*
Y406720D01*
X109838Y406714D01*
X109925Y406721D01*
X110009Y406744D01*
X110088Y406781D01*
X110159Y406831D01*
X110221Y406892D01*
X110271Y406964D01*
X110308Y407043D01*
X110331Y407127D01*
X110338Y407214D01*
X110331Y407301D01*
X110308Y407385D01*
X110261Y407535D01*
X110227Y407688D01*
X110206Y407844D01*
X110200Y408001D01*
X110206Y408157D01*
X110227Y408313D01*
X110261Y408466D01*
X110308Y408616D01*
X110331Y408700D01*
X110338Y408787D01*
X110331Y408874D01*
X110308Y408958D01*
X110271Y409037D01*
X110221Y409109D01*
X110159Y409170D01*
X110088Y409220D01*
X110009Y409257D01*
X109925Y409280D01*
X109838Y409287D01*
X109769Y409281D01*
Y422319D01*
G37*
G36*
Y454000D02*X112100D01*
Y443750D01*
X110000D01*
X109932Y443744D01*
X109847D01*
X109769Y443730D01*
Y454000D01*
G37*
G36*
Y436706D02*X108474Y438000D01*
X109769Y439295D01*
Y436706D01*
G37*
G36*
X103231Y436250D02*X105275D01*
X107250Y434275D01*
Y427180D01*
X107200Y427145D01*
X106855Y426800D01*
X106575Y426400D01*
X106369Y425958D01*
X106243Y425486D01*
X106200Y425000D01*
X106243Y424514D01*
X106369Y424042D01*
X106575Y423600D01*
X106855Y423200D01*
X107200Y422855D01*
X107600Y422575D01*
X108042Y422369D01*
X108514Y422243D01*
X109000Y422200D01*
X109486Y422243D01*
X109769Y422319D01*
Y409281D01*
X109751Y409280D01*
X109667Y409257D01*
X109588Y409220D01*
X109516Y409170D01*
X109455Y409108D01*
X109405Y409037D01*
X109368Y408958D01*
X109295Y408725D01*
X109242Y408487D01*
X109210Y408245D01*
X109200Y408001D01*
X109210Y407756D01*
X109242Y407514D01*
X109295Y407276D01*
X109368Y407043D01*
X109405Y406964D01*
X109455Y406893D01*
X109516Y406831D01*
X109588Y406781D01*
X109667Y406744D01*
X109751Y406721D01*
X109769Y406720D01*
Y363000D01*
X103231D01*
Y423720D01*
X103248Y423721D01*
X103332Y423744D01*
X103411Y423781D01*
X103483Y423831D01*
X103544Y423893D01*
X103594Y423964D01*
X103631Y424043D01*
X103704Y424276D01*
X103757Y424514D01*
X103789Y424756D01*
X103800Y425000D01*
X103789Y425245D01*
X103757Y425487D01*
X103704Y425725D01*
X103631Y425958D01*
X103594Y426037D01*
X103544Y426108D01*
X103483Y426170D01*
X103411Y426220D01*
X103332Y426257D01*
X103248Y426280D01*
X103231Y426281D01*
Y436250D01*
G37*
G36*
X101000D02*X103231D01*
Y426281D01*
X103161Y426287D01*
X103074Y426280D01*
X102990Y426257D01*
X102911Y426220D01*
X102840Y426170D01*
X102778Y426109D01*
X102728Y426037D01*
X102691Y425958D01*
X102668Y425874D01*
X102661Y425787D01*
X102668Y425700D01*
X102691Y425616D01*
X102738Y425466D01*
X102772Y425313D01*
X102793Y425157D01*
X102800Y425000D01*
X102793Y424844D01*
X102772Y424688D01*
X102738Y424535D01*
X102691Y424385D01*
X102668Y424301D01*
X102661Y424214D01*
X102668Y424127D01*
X102691Y424043D01*
X102728Y423964D01*
X102778Y423892D01*
X102840Y423831D01*
X102911Y423781D01*
X102990Y423744D01*
X103074Y423721D01*
X103161Y423714D01*
X103231Y423720D01*
Y363000D01*
X101000D01*
Y422200D01*
X101244Y422211D01*
X101486Y422243D01*
X101724Y422296D01*
X101957Y422369D01*
X102036Y422406D01*
X102107Y422456D01*
X102169Y422517D01*
X102219Y422589D01*
X102256Y422668D01*
X102279Y422752D01*
X102286Y422839D01*
X102279Y422926D01*
X102256Y423010D01*
X102219Y423089D01*
X102169Y423160D01*
X102108Y423222D01*
X102036Y423272D01*
X101957Y423309D01*
X101873Y423332D01*
X101786Y423339D01*
X101699Y423332D01*
X101615Y423309D01*
X101465Y423262D01*
X101312Y423228D01*
X101156Y423207D01*
X101000Y423200D01*
Y426800D01*
X101156Y426794D01*
X101312Y426773D01*
X101465Y426739D01*
X101615Y426692D01*
X101699Y426669D01*
X101786Y426662D01*
X101873Y426669D01*
X101957Y426692D01*
X102036Y426729D01*
X102108Y426779D01*
X102169Y426841D01*
X102219Y426912D01*
X102256Y426991D01*
X102279Y427075D01*
X102286Y427162D01*
X102279Y427249D01*
X102256Y427333D01*
X102219Y427412D01*
X102169Y427484D01*
X102107Y427545D01*
X102036Y427595D01*
X101957Y427632D01*
X101724Y427705D01*
X101486Y427758D01*
X101244Y427790D01*
X101000Y427800D01*
Y436250D01*
G37*
G36*
X98769D02*X101000D01*
Y427800D01*
X100755Y427790D01*
X100513Y427758D01*
X100275Y427705D01*
X100042Y427632D01*
X99963Y427595D01*
X99892Y427545D01*
X99830Y427484D01*
X99780Y427412D01*
X99743Y427333D01*
X99720Y427249D01*
X99713Y427162D01*
X99720Y427075D01*
X99743Y426991D01*
X99780Y426912D01*
X99830Y426841D01*
X99891Y426779D01*
X99963Y426729D01*
X100042Y426692D01*
X100126Y426669D01*
X100213Y426662D01*
X100300Y426669D01*
X100384Y426692D01*
X100534Y426739D01*
X100687Y426773D01*
X100843Y426794D01*
X101000Y426800D01*
Y423200D01*
X100999D01*
X100843Y423207D01*
X100687Y423228D01*
X100534Y423262D01*
X100384Y423309D01*
X100300Y423332D01*
X100213Y423339D01*
X100126Y423332D01*
X100042Y423309D01*
X99963Y423272D01*
X99891Y423222D01*
X99830Y423160D01*
X99780Y423089D01*
X99743Y423010D01*
X99720Y422926D01*
X99713Y422839D01*
X99720Y422752D01*
X99743Y422668D01*
X99780Y422589D01*
X99830Y422517D01*
X99892Y422456D01*
X99963Y422406D01*
X100042Y422369D01*
X100275Y422296D01*
X100513Y422243D01*
X100755Y422211D01*
X100999Y422200D01*
X101000D01*
Y363000D01*
X98769D01*
Y394605D01*
X98789Y394756D01*
X98800Y395000D01*
X98789Y395245D01*
X98769Y395396D01*
Y423720D01*
X98838Y423714D01*
X98925Y423721D01*
X99009Y423744D01*
X99088Y423781D01*
X99159Y423831D01*
X99221Y423892D01*
X99271Y423964D01*
X99308Y424043D01*
X99331Y424127D01*
X99338Y424214D01*
X99331Y424301D01*
X99308Y424385D01*
X99261Y424535D01*
X99227Y424688D01*
X99206Y424844D01*
X99200Y425001D01*
X99206Y425157D01*
X99227Y425313D01*
X99261Y425466D01*
X99308Y425616D01*
X99331Y425700D01*
X99338Y425787D01*
X99331Y425874D01*
X99308Y425958D01*
X99271Y426037D01*
X99221Y426109D01*
X99159Y426170D01*
X99088Y426220D01*
X99009Y426257D01*
X98925Y426280D01*
X98838Y426287D01*
X98769Y426281D01*
Y436250D01*
G37*
G36*
Y454000D02*X109769D01*
Y443730D01*
X109761Y443729D01*
X109696Y443723D01*
X109633Y443706D01*
X109547Y443691D01*
X109463Y443661D01*
X109401Y443644D01*
X109345Y443618D01*
X109260Y443587D01*
X109188Y443545D01*
X109125Y443516D01*
X109066Y443474D01*
X108996Y443434D01*
X108936Y443383D01*
X108875Y443341D01*
X108822Y443288D01*
X108762Y443238D01*
X105274Y439750D01*
X98769D01*
Y454000D01*
G37*
G36*
X96000Y436250D02*X98769D01*
Y426281D01*
X98751Y426280D01*
X98667Y426257D01*
X98588Y426220D01*
X98516Y426170D01*
X98455Y426108D01*
X98405Y426037D01*
X98368Y425958D01*
X98295Y425725D01*
X98242Y425487D01*
X98210Y425245D01*
X98200Y425001D01*
X98210Y424756D01*
X98242Y424514D01*
X98295Y424276D01*
X98368Y424043D01*
X98405Y423964D01*
X98455Y423893D01*
X98516Y423831D01*
X98588Y423781D01*
X98667Y423744D01*
X98751Y423721D01*
X98769Y423720D01*
Y395396D01*
X98757Y395487D01*
X98704Y395725D01*
X98631Y395958D01*
X98594Y396037D01*
X98544Y396108D01*
X98483Y396170D01*
X98411Y396220D01*
X98332Y396257D01*
X98248Y396280D01*
X98161Y396287D01*
X98074Y396280D01*
X97990Y396257D01*
X97911Y396220D01*
X97840Y396170D01*
X97778Y396109D01*
X97728Y396037D01*
X97691Y395958D01*
X97668Y395874D01*
X97661Y395787D01*
X97668Y395700D01*
X97691Y395616D01*
X97738Y395466D01*
X97772Y395313D01*
X97793Y395157D01*
X97800Y395000D01*
X97793Y394844D01*
X97772Y394688D01*
X97738Y394535D01*
X97691Y394385D01*
X97668Y394301D01*
X97661Y394214D01*
X97668Y394127D01*
X97691Y394043D01*
X97728Y393964D01*
X97778Y393892D01*
X97840Y393831D01*
X97911Y393781D01*
X97990Y393744D01*
X98074Y393721D01*
X98161Y393714D01*
X98248Y393721D01*
X98332Y393744D01*
X98411Y393781D01*
X98483Y393831D01*
X98544Y393893D01*
X98594Y393964D01*
X98631Y394043D01*
X98704Y394276D01*
X98757Y394514D01*
X98769Y394605D01*
Y363000D01*
X96000D01*
Y392200D01*
X96244Y392211D01*
X96486Y392243D01*
X96724Y392296D01*
X96957Y392369D01*
X97036Y392406D01*
X97107Y392456D01*
X97169Y392517D01*
X97219Y392589D01*
X97256Y392668D01*
X97279Y392752D01*
X97286Y392839D01*
X97279Y392926D01*
X97256Y393010D01*
X97219Y393089D01*
X97169Y393160D01*
X97108Y393222D01*
X97036Y393272D01*
X96957Y393309D01*
X96873Y393332D01*
X96786Y393339D01*
X96699Y393332D01*
X96615Y393309D01*
X96465Y393262D01*
X96312Y393228D01*
X96156Y393207D01*
X96000Y393200D01*
Y396800D01*
X96156Y396794D01*
X96312Y396773D01*
X96465Y396739D01*
X96615Y396692D01*
X96699Y396669D01*
X96786Y396662D01*
X96873Y396669D01*
X96957Y396692D01*
X97036Y396729D01*
X97108Y396779D01*
X97169Y396841D01*
X97219Y396912D01*
X97256Y396991D01*
X97279Y397075D01*
X97286Y397162D01*
X97279Y397249D01*
X97256Y397333D01*
X97219Y397412D01*
X97169Y397484D01*
X97107Y397545D01*
X97036Y397595D01*
X96957Y397632D01*
X96724Y397705D01*
X96486Y397758D01*
X96244Y397790D01*
X96000Y397800D01*
Y436250D01*
G37*
G36*
X93769D02*X96000D01*
Y397800D01*
X95755Y397790D01*
X95513Y397758D01*
X95275Y397705D01*
X95042Y397632D01*
X94963Y397595D01*
X94892Y397545D01*
X94830Y397484D01*
X94780Y397412D01*
X94743Y397333D01*
X94720Y397249D01*
X94713Y397162D01*
X94720Y397075D01*
X94743Y396991D01*
X94780Y396912D01*
X94830Y396841D01*
X94891Y396779D01*
X94963Y396729D01*
X95042Y396692D01*
X95126Y396669D01*
X95213Y396662D01*
X95300Y396669D01*
X95384Y396692D01*
X95534Y396739D01*
X95687Y396773D01*
X95843Y396794D01*
X96000Y396800D01*
Y393200D01*
X95999D01*
X95843Y393207D01*
X95687Y393228D01*
X95534Y393262D01*
X95384Y393309D01*
X95300Y393332D01*
X95213Y393339D01*
X95126Y393332D01*
X95042Y393309D01*
X94963Y393272D01*
X94891Y393222D01*
X94830Y393160D01*
X94780Y393089D01*
X94743Y393010D01*
X94720Y392926D01*
X94713Y392839D01*
X94720Y392752D01*
X94743Y392668D01*
X94780Y392589D01*
X94830Y392517D01*
X94892Y392456D01*
X94963Y392406D01*
X95042Y392369D01*
X95275Y392296D01*
X95513Y392243D01*
X95755Y392211D01*
X95999Y392200D01*
X96000D01*
Y363000D01*
X93769D01*
Y393720D01*
X93838Y393714D01*
X93925Y393721D01*
X94009Y393744D01*
X94088Y393781D01*
X94159Y393831D01*
X94221Y393892D01*
X94271Y393964D01*
X94308Y394043D01*
X94331Y394127D01*
X94338Y394214D01*
X94331Y394301D01*
X94308Y394385D01*
X94261Y394535D01*
X94227Y394688D01*
X94206Y394844D01*
X94200Y395001D01*
X94206Y395157D01*
X94227Y395313D01*
X94261Y395466D01*
X94308Y395616D01*
X94331Y395700D01*
X94338Y395787D01*
X94331Y395874D01*
X94308Y395958D01*
X94271Y396037D01*
X94221Y396109D01*
X94159Y396170D01*
X94088Y396220D01*
X94009Y396257D01*
X93925Y396280D01*
X93838Y396287D01*
X93769Y396281D01*
Y436250D01*
G37*
G36*
X74231Y402355D02*X79559D01*
X79733Y402370D01*
X79901Y402415D01*
X80059Y402489D01*
X80202Y402589D01*
X80325Y402712D01*
X80425Y402855D01*
X80499Y403013D01*
X80544Y403181D01*
X80559Y403355D01*
Y408473D01*
X80544Y408647D01*
X80499Y408815D01*
X80425Y408973D01*
X80325Y409116D01*
X80202Y409239D01*
X80059Y409339D01*
X79901Y409413D01*
X79737Y409457D01*
X79901Y409501D01*
X80059Y409575D01*
X80202Y409675D01*
X80325Y409798D01*
X80425Y409941D01*
X80499Y410099D01*
X80544Y410267D01*
X80559Y410441D01*
Y415559D01*
X80544Y415733D01*
X80499Y415901D01*
X80425Y416059D01*
X80325Y416202D01*
X80202Y416325D01*
X80059Y416425D01*
X79901Y416499D01*
X79733Y416544D01*
X79559Y416559D01*
X78750D01*
Y418441D01*
X79559D01*
X79733Y418456D01*
X79901Y418501D01*
X80059Y418575D01*
X80202Y418675D01*
X80325Y418798D01*
X80425Y418941D01*
X80499Y419099D01*
X80544Y419267D01*
X80559Y419441D01*
Y424559D01*
X80544Y424733D01*
X80499Y424901D01*
X80425Y425059D01*
X80325Y425202D01*
X80202Y425325D01*
X80059Y425425D01*
X79901Y425499D01*
X79737Y425543D01*
X79901Y425587D01*
X80059Y425661D01*
X80202Y425761D01*
X80325Y425884D01*
X80425Y426027D01*
X80499Y426185D01*
X80544Y426353D01*
X80559Y426527D01*
Y431645D01*
X80544Y431819D01*
X80499Y431987D01*
X80425Y432145D01*
X80325Y432288D01*
X80202Y432411D01*
X80059Y432511D01*
X79901Y432585D01*
X79733Y432630D01*
X79559Y432645D01*
X77964D01*
Y434441D01*
X79559D01*
X79733Y434456D01*
X79901Y434501D01*
X80059Y434575D01*
X80202Y434675D01*
X80325Y434798D01*
X80425Y434941D01*
X80499Y435099D01*
X80544Y435267D01*
X80559Y435441D01*
Y436250D01*
X80869D01*
Y435441D01*
X80884Y435267D01*
X80929Y435099D01*
X81003Y434941D01*
X81103Y434798D01*
X81226Y434675D01*
X81369Y434575D01*
X81527Y434501D01*
X81695Y434456D01*
X81869Y434441D01*
X87773D01*
X87947Y434456D01*
X88115Y434501D01*
X88273Y434575D01*
X88416Y434675D01*
X88539Y434798D01*
X88639Y434941D01*
X88713Y435099D01*
X88758Y435267D01*
X88773Y435441D01*
Y436250D01*
X93769D01*
Y396281D01*
X93751Y396280D01*
X93667Y396257D01*
X93588Y396220D01*
X93516Y396170D01*
X93455Y396108D01*
X93405Y396037D01*
X93368Y395958D01*
X93295Y395725D01*
X93242Y395487D01*
X93210Y395245D01*
X93200Y395001D01*
X93210Y394756D01*
X93242Y394514D01*
X93295Y394276D01*
X93368Y394043D01*
X93405Y393964D01*
X93455Y393893D01*
X93516Y393831D01*
X93588Y393781D01*
X93667Y393744D01*
X93751Y393721D01*
X93769Y393720D01*
Y363000D01*
X74231D01*
Y392720D01*
X74248Y392721D01*
X74332Y392744D01*
X74411Y392781D01*
X74483Y392831D01*
X74544Y392893D01*
X74594Y392964D01*
X74631Y393043D01*
X74704Y393276D01*
X74757Y393514D01*
X74789Y393756D01*
X74800Y394000D01*
X74789Y394245D01*
X74757Y394487D01*
X74704Y394725D01*
X74631Y394958D01*
X74594Y395037D01*
X74544Y395108D01*
X74483Y395170D01*
X74411Y395220D01*
X74332Y395257D01*
X74248Y395280D01*
X74231Y395281D01*
Y402355D01*
G37*
G36*
X72000Y403250D02*X72664D01*
X72670Y403181D01*
X72715Y403013D01*
X72789Y402855D01*
X72889Y402712D01*
X73012Y402589D01*
X73155Y402489D01*
X73313Y402415D01*
X73481Y402370D01*
X73655Y402355D01*
X74231D01*
Y395281D01*
X74161Y395287D01*
X74074Y395280D01*
X73990Y395257D01*
X73911Y395220D01*
X73840Y395170D01*
X73778Y395109D01*
X73728Y395037D01*
X73691Y394958D01*
X73668Y394874D01*
X73661Y394787D01*
X73668Y394700D01*
X73691Y394616D01*
X73738Y394466D01*
X73772Y394313D01*
X73793Y394157D01*
X73800Y394000D01*
X73793Y393844D01*
X73772Y393688D01*
X73738Y393535D01*
X73691Y393385D01*
X73668Y393301D01*
X73661Y393214D01*
X73668Y393127D01*
X73691Y393043D01*
X73728Y392964D01*
X73778Y392892D01*
X73840Y392831D01*
X73911Y392781D01*
X73990Y392744D01*
X74074Y392721D01*
X74161Y392714D01*
X74231Y392720D01*
Y363000D01*
X72000D01*
Y391200D01*
X72244Y391211D01*
X72486Y391243D01*
X72724Y391296D01*
X72957Y391369D01*
X73036Y391406D01*
X73107Y391456D01*
X73169Y391517D01*
X73219Y391589D01*
X73256Y391668D01*
X73279Y391752D01*
X73286Y391839D01*
X73279Y391926D01*
X73256Y392010D01*
X73219Y392089D01*
X73169Y392160D01*
X73108Y392222D01*
X73036Y392272D01*
X72957Y392309D01*
X72873Y392332D01*
X72786Y392339D01*
X72699Y392332D01*
X72615Y392309D01*
X72465Y392262D01*
X72312Y392228D01*
X72156Y392207D01*
X72000Y392200D01*
Y395800D01*
X72156Y395794D01*
X72312Y395773D01*
X72465Y395739D01*
X72615Y395692D01*
X72699Y395669D01*
X72786Y395662D01*
X72873Y395669D01*
X72957Y395692D01*
X73036Y395729D01*
X73108Y395779D01*
X73169Y395841D01*
X73219Y395912D01*
X73256Y395991D01*
X73279Y396075D01*
X73286Y396162D01*
X73279Y396249D01*
X73256Y396333D01*
X73219Y396412D01*
X73169Y396484D01*
X73107Y396545D01*
X73036Y396595D01*
X72957Y396632D01*
X72724Y396705D01*
X72486Y396758D01*
X72244Y396790D01*
X72000Y396800D01*
Y403250D01*
G37*
G36*
X69769Y404756D02*X70763Y403762D01*
X70818Y403716D01*
X70875Y403659D01*
X70941Y403613D01*
X70997Y403566D01*
X71057Y403532D01*
X71125Y403484D01*
X71201Y403449D01*
X71261Y403414D01*
X71331Y403388D01*
X71401Y403356D01*
X71469Y403338D01*
X71548Y403309D01*
X71630Y403295D01*
X71696Y403277D01*
X71771Y403270D01*
X71848Y403257D01*
X71920D01*
X72000Y403250D01*
Y396800D01*
X71755Y396790D01*
X71513Y396758D01*
X71275Y396705D01*
X71042Y396632D01*
X70963Y396595D01*
X70892Y396545D01*
X70830Y396484D01*
X70780Y396412D01*
X70743Y396333D01*
X70720Y396249D01*
X70713Y396162D01*
X70720Y396075D01*
X70743Y395991D01*
X70780Y395912D01*
X70830Y395841D01*
X70891Y395779D01*
X70963Y395729D01*
X71042Y395692D01*
X71126Y395669D01*
X71213Y395662D01*
X71300Y395669D01*
X71384Y395692D01*
X71534Y395739D01*
X71687Y395773D01*
X71843Y395794D01*
X72000Y395800D01*
Y392200D01*
X71999D01*
X71843Y392207D01*
X71687Y392228D01*
X71534Y392262D01*
X71384Y392309D01*
X71300Y392332D01*
X71213Y392339D01*
X71126Y392332D01*
X71042Y392309D01*
X70963Y392272D01*
X70891Y392222D01*
X70830Y392160D01*
X70780Y392089D01*
X70743Y392010D01*
X70720Y391926D01*
X70713Y391839D01*
X70720Y391752D01*
X70743Y391668D01*
X70780Y391589D01*
X70830Y391517D01*
X70892Y391456D01*
X70963Y391406D01*
X71042Y391369D01*
X71275Y391296D01*
X71513Y391243D01*
X71755Y391211D01*
X71999Y391200D01*
X72000D01*
Y363000D01*
X69769D01*
Y392720D01*
X69838Y392714D01*
X69925Y392721D01*
X70009Y392744D01*
X70088Y392781D01*
X70159Y392831D01*
X70221Y392892D01*
X70271Y392964D01*
X70308Y393043D01*
X70331Y393127D01*
X70338Y393214D01*
X70331Y393301D01*
X70308Y393385D01*
X70261Y393535D01*
X70227Y393688D01*
X70206Y393844D01*
X70200Y394001D01*
X70206Y394157D01*
X70227Y394313D01*
X70261Y394466D01*
X70308Y394616D01*
X70331Y394700D01*
X70338Y394787D01*
X70331Y394874D01*
X70308Y394958D01*
X70271Y395037D01*
X70221Y395109D01*
X70159Y395170D01*
X70088Y395220D01*
X70009Y395257D01*
X69925Y395280D01*
X69838Y395287D01*
X69769Y395281D01*
Y404756D01*
G37*
G36*
Y420319D02*X69958Y420369D01*
X70400Y420575D01*
X70800Y420855D01*
X71145Y421200D01*
X71180Y421250D01*
X72655D01*
Y419441D01*
X72670Y419267D01*
X72715Y419099D01*
X72789Y418941D01*
X72889Y418798D01*
X73012Y418675D01*
X73155Y418575D01*
X73313Y418501D01*
X73481Y418456D01*
X73655Y418441D01*
X75250D01*
Y416559D01*
X73655D01*
X73481Y416544D01*
X73313Y416499D01*
X73155Y416425D01*
X73012Y416325D01*
X72889Y416202D01*
X72789Y416059D01*
X72715Y415901D01*
X72670Y415733D01*
X72655Y415559D01*
Y410441D01*
X72670Y410267D01*
X72715Y410099D01*
X72789Y409941D01*
X72889Y409798D01*
X73012Y409675D01*
X73155Y409575D01*
X73313Y409501D01*
X73477Y409457D01*
X73313Y409413D01*
X73155Y409339D01*
X73012Y409239D01*
X72889Y409116D01*
X72789Y408973D01*
X72715Y408815D01*
X72670Y408647D01*
X72655Y408473D01*
Y406820D01*
X71781Y407694D01*
X71789Y407756D01*
X71800Y408000D01*
X71789Y408245D01*
X71757Y408487D01*
X71704Y408725D01*
X71631Y408958D01*
X71594Y409037D01*
X71544Y409108D01*
X71483Y409170D01*
X71411Y409220D01*
X71332Y409257D01*
X71248Y409280D01*
X71161Y409287D01*
X71074Y409280D01*
X70990Y409257D01*
X70911Y409220D01*
X70840Y409170D01*
X70778Y409109D01*
X70728Y409037D01*
X70691Y408958D01*
X70668Y408874D01*
X70663Y408812D01*
X70238Y409237D01*
X70004Y409433D01*
X69769Y409569D01*
Y409663D01*
X69786Y409662D01*
X69873Y409669D01*
X69957Y409692D01*
X70036Y409729D01*
X70108Y409779D01*
X70169Y409841D01*
X70219Y409912D01*
X70256Y409991D01*
X70279Y410075D01*
X70286Y410162D01*
X70279Y410249D01*
X70256Y410333D01*
X70219Y410412D01*
X70169Y410484D01*
X70107Y410545D01*
X70036Y410595D01*
X69957Y410632D01*
X69769Y410691D01*
Y420319D01*
G37*
G36*
Y442210D02*X69999Y442200D01*
X70244Y442211D01*
X70486Y442243D01*
X70724Y442296D01*
X70957Y442369D01*
X71036Y442406D01*
X71107Y442456D01*
X71169Y442517D01*
X71219Y442589D01*
X71256Y442668D01*
X71279Y442752D01*
X71286Y442839D01*
X71279Y442926D01*
X71256Y443010D01*
X71219Y443089D01*
X71169Y443160D01*
X71108Y443222D01*
X71068Y443250D01*
X72655D01*
Y442527D01*
X72670Y442353D01*
X72715Y442185D01*
X72789Y442027D01*
X72889Y441884D01*
X73012Y441761D01*
X73155Y441661D01*
X73313Y441587D01*
X73477Y441543D01*
X73313Y441499D01*
X73155Y441425D01*
X73012Y441325D01*
X72889Y441202D01*
X72789Y441059D01*
X72715Y440901D01*
X72670Y440733D01*
X72655Y440559D01*
Y435441D01*
X72670Y435267D01*
X72715Y435099D01*
X72789Y434941D01*
X72889Y434798D01*
X73012Y434675D01*
X73155Y434575D01*
X73313Y434501D01*
X73481Y434456D01*
X73655Y434441D01*
X74464D01*
Y432645D01*
X73655D01*
X73481Y432630D01*
X73313Y432585D01*
X73155Y432511D01*
X73012Y432411D01*
X72889Y432288D01*
X72789Y432145D01*
X72715Y431987D01*
X72670Y431819D01*
X72655Y431645D01*
Y426527D01*
X72670Y426353D01*
X72715Y426185D01*
X72789Y426027D01*
X72889Y425884D01*
X73012Y425761D01*
X73155Y425661D01*
X73313Y425587D01*
X73477Y425543D01*
X73313Y425499D01*
X73155Y425425D01*
X73012Y425325D01*
X72889Y425202D01*
X72789Y425059D01*
X72715Y424901D01*
X72675Y424750D01*
X71180D01*
X71145Y424800D01*
X70800Y425145D01*
X70400Y425425D01*
X69958Y425631D01*
X69769Y425681D01*
Y442210D01*
G37*
G36*
Y443270D02*X69774D01*
X69848Y443257D01*
X69921D01*
X70000Y443250D01*
X70411D01*
X70312Y443228D01*
X70156Y443207D01*
X69999Y443200D01*
X69843Y443207D01*
X69769Y443217D01*
Y443270D01*
G37*
G36*
Y454000D02*X98769D01*
Y439750D01*
X88773D01*
Y440559D01*
X88758Y440733D01*
X88713Y440901D01*
X88639Y441059D01*
X88539Y441202D01*
X88416Y441325D01*
X88273Y441425D01*
X88115Y441499D01*
X87951Y441543D01*
X88115Y441587D01*
X88273Y441661D01*
X88416Y441761D01*
X88539Y441884D01*
X88639Y442027D01*
X88713Y442185D01*
X88758Y442353D01*
X88773Y442527D01*
Y447645D01*
X88758Y447819D01*
X88713Y447987D01*
X88639Y448145D01*
X88539Y448288D01*
X88416Y448411D01*
X88273Y448511D01*
X88115Y448585D01*
X87947Y448630D01*
X87773Y448645D01*
X81869D01*
X81695Y448630D01*
X81527Y448585D01*
X81369Y448511D01*
X81226Y448411D01*
X81103Y448288D01*
X81003Y448145D01*
X80929Y447987D01*
X80884Y447819D01*
X80869Y447645D01*
Y446750D01*
X80559D01*
Y447645D01*
X80544Y447819D01*
X80499Y447987D01*
X80425Y448145D01*
X80325Y448288D01*
X80202Y448411D01*
X80059Y448511D01*
X79901Y448585D01*
X79733Y448630D01*
X79559Y448645D01*
X73655D01*
X73481Y448630D01*
X73313Y448585D01*
X73155Y448511D01*
X73012Y448411D01*
X72889Y448288D01*
X72789Y448145D01*
X72715Y447987D01*
X72670Y447819D01*
X72655Y447645D01*
Y446836D01*
X71164D01*
X71169Y446841D01*
X71219Y446912D01*
X71256Y446991D01*
X71279Y447075D01*
X71286Y447162D01*
X71279Y447249D01*
X71256Y447333D01*
X71219Y447412D01*
X71169Y447484D01*
X71107Y447545D01*
X71036Y447595D01*
X70957Y447632D01*
X70724Y447705D01*
X70486Y447758D01*
X70244Y447790D01*
X70000Y447800D01*
X69769Y447791D01*
Y454000D01*
G37*
G36*
X66769Y421323D02*X66855Y421200D01*
X67200Y420855D01*
X67600Y420575D01*
X68042Y420369D01*
X68514Y420243D01*
X69000Y420200D01*
X69486Y420243D01*
X69769Y420319D01*
Y410691D01*
X69724Y410705D01*
X69486Y410758D01*
X69244Y410790D01*
X69000Y410800D01*
X68755Y410790D01*
X68513Y410758D01*
X68275Y410705D01*
X68042Y410632D01*
X67963Y410595D01*
X67892Y410545D01*
X67830Y410484D01*
X67780Y410412D01*
X67743Y410333D01*
X67720Y410249D01*
X67713Y410162D01*
X67720Y410075D01*
X67743Y409991D01*
X67780Y409912D01*
X67830Y409841D01*
X67891Y409779D01*
X67963Y409729D01*
X68042Y409692D01*
X68126Y409669D01*
X68213Y409662D01*
X68300Y409669D01*
X68384Y409692D01*
X68534Y409739D01*
X68687Y409773D01*
X68843Y409794D01*
X69000Y409800D01*
X69156Y409794D01*
X69312Y409773D01*
X69465Y409739D01*
X69615Y409692D01*
X69699Y409669D01*
X69769Y409663D01*
Y409569D01*
X69740Y409586D01*
X69454Y409690D01*
X69153Y409743D01*
X68848D01*
X68548Y409691D01*
X68261Y409586D01*
X67997Y409434D01*
X67763Y409238D01*
X67567Y409004D01*
X67414Y408740D01*
X67310Y408454D01*
X67257Y408153D01*
Y407848D01*
X67309Y407548D01*
X67414Y407261D01*
X67566Y406997D01*
X67762Y406763D01*
X68188Y406337D01*
X68126Y406332D01*
X68042Y406309D01*
X67963Y406272D01*
X67891Y406222D01*
X67830Y406160D01*
X67780Y406089D01*
X67743Y406010D01*
X67720Y405926D01*
X67713Y405839D01*
X67720Y405752D01*
X67743Y405668D01*
X67780Y405589D01*
X67830Y405517D01*
X67892Y405456D01*
X67963Y405406D01*
X68042Y405369D01*
X68275Y405296D01*
X68513Y405243D01*
X68755Y405211D01*
X68999Y405200D01*
X69244Y405211D01*
X69306Y405219D01*
X69769Y404756D01*
Y395281D01*
X69751Y395280D01*
X69667Y395257D01*
X69588Y395220D01*
X69516Y395170D01*
X69455Y395108D01*
X69405Y395037D01*
X69368Y394958D01*
X69295Y394725D01*
X69242Y394487D01*
X69210Y394245D01*
X69200Y394001D01*
X69210Y393756D01*
X69242Y393514D01*
X69295Y393276D01*
X69368Y393043D01*
X69405Y392964D01*
X69455Y392893D01*
X69516Y392831D01*
X69588Y392781D01*
X69667Y392744D01*
X69751Y392721D01*
X69769Y392720D01*
Y363000D01*
X66769D01*
Y406720D01*
X66838Y406714D01*
X66925Y406721D01*
X67009Y406744D01*
X67088Y406781D01*
X67159Y406831D01*
X67221Y406892D01*
X67271Y406964D01*
X67308Y407043D01*
X67331Y407127D01*
X67338Y407214D01*
X67331Y407301D01*
X67308Y407385D01*
X67261Y407535D01*
X67227Y407688D01*
X67206Y407844D01*
X67200Y408001D01*
X67206Y408157D01*
X67227Y408313D01*
X67261Y408466D01*
X67308Y408616D01*
X67331Y408700D01*
X67338Y408787D01*
X67331Y408874D01*
X67308Y408958D01*
X67271Y409037D01*
X67221Y409109D01*
X67159Y409170D01*
X67088Y409220D01*
X67009Y409257D01*
X66925Y409280D01*
X66838Y409287D01*
X66769Y409281D01*
Y421323D01*
G37*
G36*
X67769Y454000D02*X69769D01*
Y447791D01*
X69755Y447790D01*
X69513Y447758D01*
X69275Y447705D01*
X69042Y447632D01*
X68963Y447595D01*
X68892Y447545D01*
X68830Y447484D01*
X68780Y447412D01*
X68743Y447333D01*
X68720Y447249D01*
X68713Y447162D01*
X68720Y447075D01*
X68743Y446991D01*
X68780Y446912D01*
X68830Y446841D01*
X68891Y446779D01*
X68963Y446729D01*
X69042Y446692D01*
X69126Y446669D01*
X69213Y446662D01*
X69300Y446669D01*
X69384Y446692D01*
X69449Y446712D01*
X69432Y446704D01*
X69346Y446673D01*
X69273Y446631D01*
X69211Y446602D01*
X69154Y446562D01*
X69082Y446520D01*
X69022Y446469D01*
X68961Y446427D01*
X68910Y446376D01*
X68848Y446324D01*
X68762Y446238D01*
X68763Y446237D01*
X68721Y446187D01*
X68659Y446125D01*
X68607Y446051D01*
X68567Y446003D01*
X68536Y445950D01*
X68484Y445875D01*
X68445Y445792D01*
X68415Y445739D01*
X68394Y445682D01*
X68356Y445599D01*
X68336Y445522D01*
X68310Y445453D01*
X68296Y445375D01*
X68277Y445304D01*
X68270Y445226D01*
X68257Y445152D01*
Y445079D01*
X68250Y445000D01*
X68257Y444921D01*
Y444848D01*
X68270Y444774D01*
X68277Y444696D01*
X68297Y444622D01*
X68310Y444547D01*
X68336Y444475D01*
X68356Y444401D01*
X68392Y444322D01*
X68415Y444261D01*
X68445Y444209D01*
X68484Y444125D01*
X68536Y444050D01*
X68567Y443997D01*
X68606Y443951D01*
X68659Y443875D01*
X68722Y443812D01*
X68763Y443763D01*
X68813Y443721D01*
X68875Y443659D01*
X68949Y443607D01*
X68997Y443567D01*
X69050Y443536D01*
X69125Y443484D01*
X69210Y443444D01*
X69261Y443415D01*
X69320Y443393D01*
X69401Y443356D01*
X69478Y443336D01*
X69547Y443310D01*
X69625Y443296D01*
X69696Y443277D01*
X69769Y443270D01*
Y443217D01*
X69687Y443228D01*
X69534Y443262D01*
X69384Y443309D01*
X69300Y443332D01*
X69213Y443339D01*
X69126Y443332D01*
X69042Y443309D01*
X68963Y443272D01*
X68891Y443222D01*
X68830Y443160D01*
X68780Y443089D01*
X68743Y443010D01*
X68720Y442926D01*
X68713Y442839D01*
X68720Y442752D01*
X68743Y442668D01*
X68780Y442589D01*
X68830Y442517D01*
X68892Y442456D01*
X68963Y442406D01*
X69042Y442369D01*
X69275Y442296D01*
X69513Y442243D01*
X69755Y442211D01*
X69769Y442210D01*
Y425681D01*
X69486Y425757D01*
X69000Y425800D01*
X68514Y425757D01*
X68042Y425631D01*
X67769Y425504D01*
Y443720D01*
X67838Y443714D01*
X67925Y443721D01*
X68009Y443744D01*
X68088Y443781D01*
X68159Y443831D01*
X68221Y443892D01*
X68271Y443964D01*
X68308Y444043D01*
X68331Y444127D01*
X68338Y444214D01*
X68331Y444301D01*
X68308Y444385D01*
X68261Y444535D01*
X68227Y444688D01*
X68206Y444844D01*
X68200Y445001D01*
X68206Y445157D01*
X68227Y445313D01*
X68261Y445466D01*
X68308Y445616D01*
X68331Y445700D01*
X68338Y445787D01*
X68331Y445874D01*
X68308Y445958D01*
X68271Y446037D01*
X68221Y446109D01*
X68159Y446170D01*
X68088Y446220D01*
X68009Y446257D01*
X67925Y446280D01*
X67838Y446287D01*
X67769Y446281D01*
Y454000D01*
G37*
G36*
X66769D02*X67769D01*
Y446281D01*
X67751Y446280D01*
X67667Y446257D01*
X67588Y446220D01*
X67516Y446170D01*
X67455Y446108D01*
X67405Y446037D01*
X67368Y445958D01*
X67295Y445725D01*
X67242Y445487D01*
X67210Y445245D01*
X67200Y445001D01*
X67210Y444756D01*
X67242Y444514D01*
X67295Y444276D01*
X67368Y444043D01*
X67405Y443964D01*
X67455Y443893D01*
X67516Y443831D01*
X67588Y443781D01*
X67667Y443744D01*
X67751Y443721D01*
X67769Y443720D01*
Y425504D01*
X67600Y425425D01*
X67200Y425145D01*
X66855Y424800D01*
X66769Y424677D01*
Y454000D01*
G37*
G36*
X61231D02*X66769D01*
Y424677D01*
X66575Y424400D01*
X66388Y423999D01*
X66369Y423958D01*
X66243Y423486D01*
X66200Y423000D01*
X66243Y422514D01*
X66369Y422042D01*
X66388Y422001D01*
X66575Y421600D01*
X66769Y421323D01*
Y409281D01*
X66751Y409280D01*
X66667Y409257D01*
X66588Y409220D01*
X66516Y409170D01*
X66455Y409108D01*
X66405Y409037D01*
X66388Y409001D01*
X66368Y408958D01*
X66295Y408725D01*
X66242Y408487D01*
X66210Y408245D01*
X66200Y408001D01*
X66210Y407756D01*
X66242Y407514D01*
X66295Y407276D01*
X66368Y407043D01*
X66388Y407000D01*
X66405Y406964D01*
X66455Y406893D01*
X66516Y406831D01*
X66588Y406781D01*
X66667Y406744D01*
X66751Y406721D01*
X66769Y406720D01*
Y363000D01*
X61231D01*
Y395720D01*
X61248Y395721D01*
X61332Y395744D01*
X61411Y395781D01*
X61483Y395831D01*
X61544Y395893D01*
X61594Y395964D01*
X61631Y396043D01*
X61704Y396276D01*
X61757Y396514D01*
X61789Y396756D01*
X61800Y397000D01*
X61789Y397245D01*
X61757Y397487D01*
X61704Y397725D01*
X61631Y397958D01*
X61594Y398037D01*
X61544Y398108D01*
X61483Y398170D01*
X61411Y398220D01*
X61332Y398257D01*
X61248Y398280D01*
X61231Y398281D01*
Y402153D01*
X65146D01*
X65320Y402168D01*
X65488Y402213D01*
X65646Y402287D01*
X65789Y402387D01*
X65912Y402510D01*
X66012Y402653D01*
X66086Y402811D01*
X66131Y402979D01*
X66146Y403153D01*
Y407753D01*
X66131Y407927D01*
X66086Y408095D01*
X66012Y408253D01*
X65912Y408396D01*
X65789Y408519D01*
X65646Y408619D01*
X65488Y408693D01*
X65320Y408738D01*
X65146Y408753D01*
X61231D01*
Y421247D01*
X65146D01*
X65320Y421262D01*
X65488Y421307D01*
X65646Y421381D01*
X65789Y421481D01*
X65912Y421604D01*
X66012Y421747D01*
X66086Y421905D01*
X66131Y422073D01*
X66146Y422247D01*
Y426847D01*
X66131Y427021D01*
X66086Y427189D01*
X66012Y427347D01*
X65912Y427490D01*
X65789Y427613D01*
X65646Y427713D01*
X65488Y427787D01*
X65320Y427832D01*
X65146Y427847D01*
X61231D01*
Y431720D01*
X61248Y431721D01*
X61332Y431744D01*
X61411Y431781D01*
X61483Y431831D01*
X61544Y431893D01*
X61594Y431964D01*
X61631Y432043D01*
X61704Y432276D01*
X61757Y432514D01*
X61789Y432756D01*
X61800Y433000D01*
X61789Y433245D01*
X61757Y433487D01*
X61704Y433725D01*
X61631Y433958D01*
X61594Y434037D01*
X61544Y434108D01*
X61483Y434170D01*
X61411Y434220D01*
X61332Y434257D01*
X61248Y434280D01*
X61231Y434281D01*
Y454000D01*
G37*
G36*
Y408753D02*X59008D01*
X59000Y408752D01*
Y421248D01*
X59008Y421247D01*
X61231D01*
Y408753D01*
G37*
G36*
Y363000D02*X59000D01*
Y394200D01*
X59244Y394211D01*
X59486Y394243D01*
X59724Y394296D01*
X59957Y394369D01*
X60036Y394406D01*
X60107Y394456D01*
X60169Y394517D01*
X60219Y394589D01*
X60256Y394668D01*
X60279Y394752D01*
X60286Y394839D01*
X60279Y394926D01*
X60256Y395010D01*
X60219Y395089D01*
X60169Y395160D01*
X60108Y395222D01*
X60036Y395272D01*
X59957Y395309D01*
X59873Y395332D01*
X59786Y395339D01*
X59699Y395332D01*
X59615Y395309D01*
X59465Y395262D01*
X59312Y395228D01*
X59156Y395207D01*
X59000Y395200D01*
Y398800D01*
X59156Y398794D01*
X59312Y398773D01*
X59465Y398739D01*
X59615Y398692D01*
X59699Y398669D01*
X59786Y398662D01*
X59873Y398669D01*
X59957Y398692D01*
X60036Y398729D01*
X60108Y398779D01*
X60169Y398841D01*
X60219Y398912D01*
X60256Y398991D01*
X60279Y399075D01*
X60286Y399162D01*
X60279Y399249D01*
X60256Y399333D01*
X60219Y399412D01*
X60169Y399484D01*
X60107Y399545D01*
X60036Y399595D01*
X59957Y399632D01*
X59724Y399705D01*
X59486Y399758D01*
X59244Y399790D01*
X59000Y399800D01*
Y402154D01*
X59008Y402153D01*
X61231D01*
Y398281D01*
X61161Y398287D01*
X61074Y398280D01*
X60990Y398257D01*
X60911Y398220D01*
X60840Y398170D01*
X60778Y398109D01*
X60728Y398037D01*
X60691Y397958D01*
X60668Y397874D01*
X60661Y397787D01*
X60668Y397700D01*
X60691Y397616D01*
X60738Y397466D01*
X60772Y397313D01*
X60793Y397157D01*
X60800Y397000D01*
X60793Y396844D01*
X60772Y396688D01*
X60738Y396535D01*
X60691Y396385D01*
X60668Y396301D01*
X60661Y396214D01*
X60668Y396127D01*
X60691Y396043D01*
X60728Y395964D01*
X60778Y395892D01*
X60840Y395831D01*
X60911Y395781D01*
X60990Y395744D01*
X61074Y395721D01*
X61161Y395714D01*
X61231Y395720D01*
Y363000D01*
G37*
G36*
X59000Y454000D02*X61231D01*
Y434281D01*
X61161Y434287D01*
X61074Y434280D01*
X60990Y434257D01*
X60911Y434220D01*
X60840Y434170D01*
X60778Y434109D01*
X60728Y434037D01*
X60691Y433958D01*
X60668Y433874D01*
X60661Y433787D01*
X60668Y433700D01*
X60691Y433616D01*
X60738Y433466D01*
X60772Y433313D01*
X60793Y433157D01*
X60800Y433000D01*
X60793Y432844D01*
X60772Y432688D01*
X60738Y432535D01*
X60691Y432385D01*
X60668Y432301D01*
X60661Y432214D01*
X60668Y432127D01*
X60691Y432043D01*
X60728Y431964D01*
X60778Y431892D01*
X60840Y431831D01*
X60911Y431781D01*
X60990Y431744D01*
X61074Y431721D01*
X61161Y431714D01*
X61231Y431720D01*
Y427847D01*
X59008D01*
X59000Y427846D01*
Y430200D01*
X59244Y430211D01*
X59486Y430243D01*
X59724Y430296D01*
X59957Y430369D01*
X60036Y430406D01*
X60107Y430456D01*
X60169Y430517D01*
X60219Y430589D01*
X60256Y430668D01*
X60279Y430752D01*
X60286Y430839D01*
X60279Y430926D01*
X60256Y431010D01*
X60219Y431089D01*
X60169Y431160D01*
X60108Y431222D01*
X60036Y431272D01*
X59957Y431309D01*
X59873Y431332D01*
X59786Y431339D01*
X59699Y431332D01*
X59615Y431309D01*
X59465Y431262D01*
X59312Y431228D01*
X59156Y431207D01*
X59000Y431200D01*
Y434800D01*
X59156Y434794D01*
X59312Y434773D01*
X59465Y434739D01*
X59615Y434692D01*
X59699Y434669D01*
X59786Y434662D01*
X59873Y434669D01*
X59957Y434692D01*
X60036Y434729D01*
X60108Y434779D01*
X60169Y434841D01*
X60219Y434912D01*
X60256Y434991D01*
X60279Y435075D01*
X60286Y435162D01*
X60279Y435249D01*
X60256Y435333D01*
X60219Y435412D01*
X60169Y435484D01*
X60107Y435545D01*
X60036Y435595D01*
X59957Y435632D01*
X59724Y435705D01*
X59486Y435758D01*
X59244Y435790D01*
X59000Y435800D01*
Y454000D01*
G37*
G36*
X56769D02*X59000D01*
Y435800D01*
X58755Y435790D01*
X58513Y435758D01*
X58275Y435705D01*
X58042Y435632D01*
X57963Y435595D01*
X57892Y435545D01*
X57830Y435484D01*
X57780Y435412D01*
X57743Y435333D01*
X57720Y435249D01*
X57713Y435162D01*
X57720Y435075D01*
X57743Y434991D01*
X57780Y434912D01*
X57830Y434841D01*
X57891Y434779D01*
X57963Y434729D01*
X58042Y434692D01*
X58126Y434669D01*
X58213Y434662D01*
X58300Y434669D01*
X58384Y434692D01*
X58534Y434739D01*
X58687Y434773D01*
X58843Y434794D01*
X59000Y434800D01*
Y431200D01*
X58999D01*
X58843Y431207D01*
X58687Y431228D01*
X58534Y431262D01*
X58384Y431309D01*
X58300Y431332D01*
X58213Y431339D01*
X58126Y431332D01*
X58042Y431309D01*
X57963Y431272D01*
X57891Y431222D01*
X57830Y431160D01*
X57780Y431089D01*
X57743Y431010D01*
X57720Y430926D01*
X57713Y430839D01*
X57720Y430752D01*
X57743Y430668D01*
X57780Y430589D01*
X57830Y430517D01*
X57892Y430456D01*
X57963Y430406D01*
X58042Y430369D01*
X58275Y430296D01*
X58513Y430243D01*
X58755Y430211D01*
X58999Y430200D01*
X59000D01*
Y427846D01*
X58834Y427832D01*
X58666Y427787D01*
X58508Y427713D01*
X58365Y427613D01*
X58242Y427490D01*
X58142Y427347D01*
X58068Y427189D01*
X58023Y427021D01*
X58008Y426847D01*
Y422247D01*
X58023Y422073D01*
X58068Y421905D01*
X58142Y421747D01*
X58242Y421604D01*
X58365Y421481D01*
X58508Y421381D01*
X58666Y421307D01*
X58834Y421262D01*
X59000Y421248D01*
Y408752D01*
X58834Y408738D01*
X58666Y408693D01*
X58508Y408619D01*
X58365Y408519D01*
X58242Y408396D01*
X58142Y408253D01*
X58068Y408095D01*
X58023Y407927D01*
X58008Y407753D01*
Y403153D01*
X58023Y402979D01*
X58068Y402811D01*
X58142Y402653D01*
X58242Y402510D01*
X58365Y402387D01*
X58508Y402287D01*
X58666Y402213D01*
X58834Y402168D01*
X59000Y402154D01*
Y399800D01*
X58755Y399790D01*
X58513Y399758D01*
X58275Y399705D01*
X58042Y399632D01*
X57963Y399595D01*
X57892Y399545D01*
X57830Y399484D01*
X57780Y399412D01*
X57743Y399333D01*
X57720Y399249D01*
X57713Y399162D01*
X57720Y399075D01*
X57743Y398991D01*
X57780Y398912D01*
X57830Y398841D01*
X57891Y398779D01*
X57963Y398729D01*
X58042Y398692D01*
X58126Y398669D01*
X58213Y398662D01*
X58300Y398669D01*
X58384Y398692D01*
X58534Y398739D01*
X58687Y398773D01*
X58843Y398794D01*
X59000Y398800D01*
Y395200D01*
X58999D01*
X58843Y395207D01*
X58687Y395228D01*
X58534Y395262D01*
X58384Y395309D01*
X58300Y395332D01*
X58213Y395339D01*
X58126Y395332D01*
X58042Y395309D01*
X57963Y395272D01*
X57891Y395222D01*
X57830Y395160D01*
X57780Y395089D01*
X57743Y395010D01*
X57720Y394926D01*
X57713Y394839D01*
X57720Y394752D01*
X57743Y394668D01*
X57780Y394589D01*
X57830Y394517D01*
X57892Y394456D01*
X57963Y394406D01*
X58042Y394369D01*
X58275Y394296D01*
X58513Y394243D01*
X58755Y394211D01*
X58999Y394200D01*
X59000D01*
Y363000D01*
X56769D01*
Y395720D01*
X56838Y395714D01*
X56925Y395721D01*
X57009Y395744D01*
X57088Y395781D01*
X57159Y395831D01*
X57221Y395892D01*
X57271Y395964D01*
X57308Y396043D01*
X57331Y396127D01*
X57338Y396214D01*
X57331Y396301D01*
X57308Y396385D01*
X57261Y396535D01*
X57227Y396688D01*
X57206Y396844D01*
X57200Y397001D01*
X57206Y397157D01*
X57227Y397313D01*
X57261Y397466D01*
X57308Y397616D01*
X57331Y397700D01*
X57338Y397787D01*
X57331Y397874D01*
X57308Y397958D01*
X57271Y398037D01*
X57221Y398109D01*
X57159Y398170D01*
X57088Y398220D01*
X57009Y398257D01*
X56925Y398280D01*
X56838Y398287D01*
X56769Y398281D01*
Y431720D01*
X56838Y431714D01*
X56925Y431721D01*
X57009Y431744D01*
X57088Y431781D01*
X57159Y431831D01*
X57221Y431892D01*
X57271Y431964D01*
X57308Y432043D01*
X57331Y432127D01*
X57338Y432214D01*
X57331Y432301D01*
X57308Y432385D01*
X57261Y432535D01*
X57227Y432688D01*
X57206Y432844D01*
X57200Y433001D01*
X57206Y433157D01*
X57227Y433313D01*
X57261Y433466D01*
X57308Y433616D01*
X57331Y433700D01*
X57338Y433787D01*
X57331Y433874D01*
X57308Y433958D01*
X57271Y434037D01*
X57221Y434109D01*
X57159Y434170D01*
X57088Y434220D01*
X57009Y434257D01*
X56925Y434280D01*
X56838Y434287D01*
X56769Y434281D01*
Y454000D01*
G37*
G36*
X50385D02*X56769D01*
Y434281D01*
X56751Y434280D01*
X56667Y434257D01*
X56588Y434220D01*
X56516Y434170D01*
X56455Y434108D01*
X56405Y434037D01*
X56368Y433958D01*
X56295Y433725D01*
X56242Y433487D01*
X56210Y433245D01*
X56200Y433001D01*
X56210Y432756D01*
X56242Y432514D01*
X56295Y432276D01*
X56368Y432043D01*
X56405Y431964D01*
X56455Y431893D01*
X56516Y431831D01*
X56588Y431781D01*
X56667Y431744D01*
X56751Y431721D01*
X56769Y431720D01*
Y398281D01*
X56751Y398280D01*
X56667Y398257D01*
X56588Y398220D01*
X56516Y398170D01*
X56455Y398108D01*
X56405Y398037D01*
X56368Y397958D01*
X56295Y397725D01*
X56242Y397487D01*
X56210Y397245D01*
X56200Y397001D01*
X56210Y396756D01*
X56242Y396514D01*
X56295Y396276D01*
X56368Y396043D01*
X56405Y395964D01*
X56455Y395893D01*
X56516Y395831D01*
X56588Y395781D01*
X56667Y395744D01*
X56751Y395721D01*
X56769Y395720D01*
Y363000D01*
X50385D01*
Y400972D01*
X53748D01*
X53922Y400987D01*
X54090Y401032D01*
X54248Y401106D01*
X54391Y401206D01*
X54514Y401329D01*
X54614Y401472D01*
X54688Y401630D01*
X54733Y401798D01*
X54748Y401972D01*
Y406572D01*
X54733Y406746D01*
X54688Y406914D01*
X54614Y407072D01*
X54514Y407215D01*
X54391Y407338D01*
X54248Y407438D01*
X54090Y407512D01*
X53922Y407557D01*
X53761Y407571D01*
X53748Y407572D01*
X50385D01*
Y422428D01*
X53748D01*
X53761Y422429D01*
X53922Y422443D01*
X54090Y422488D01*
X54248Y422562D01*
X54391Y422662D01*
X54514Y422785D01*
X54614Y422928D01*
X54688Y423086D01*
X54733Y423254D01*
X54748Y423428D01*
Y428028D01*
X54733Y428202D01*
X54688Y428370D01*
X54614Y428528D01*
X54514Y428671D01*
X54391Y428794D01*
X54248Y428894D01*
X54090Y428968D01*
X53922Y429013D01*
X53748Y429028D01*
X50385D01*
Y454000D01*
G37*
G36*
X42000Y363000D02*Y454000D01*
X50385D01*
Y429028D01*
X47022D01*
X46848Y429013D01*
X46680Y428968D01*
X46522Y428894D01*
X46379Y428794D01*
X46256Y428671D01*
X46156Y428528D01*
X46082Y428370D01*
X46037Y428202D01*
X46022Y428028D01*
Y423428D01*
X46037Y423254D01*
X46082Y423086D01*
X46156Y422928D01*
X46256Y422785D01*
X46379Y422662D01*
X46522Y422562D01*
X46680Y422488D01*
X46848Y422443D01*
X47022Y422428D01*
X50385D01*
Y407572D01*
X47022D01*
X46848Y407557D01*
X46680Y407512D01*
X46522Y407438D01*
X46379Y407338D01*
X46256Y407215D01*
X46156Y407072D01*
X46082Y406914D01*
X46037Y406746D01*
X46022Y406572D01*
Y401972D01*
X46037Y401798D01*
X46082Y401630D01*
X46156Y401472D01*
X46256Y401329D01*
X46379Y401206D01*
X46522Y401106D01*
X46680Y401032D01*
X46848Y400987D01*
X47022Y400972D01*
X50385D01*
Y363000D01*
X42000D01*
G37*
G54D11*X69000Y423000D02*X75214D01*
X76214Y422000D01*
X77000D02*Y413786D01*
X69000Y408000D02*X72000Y405000D01*
X75300D01*
X76214Y405914D01*
X77000Y413786D02*X76214Y413000D01*
Y429086D02*Y438000D01*
X85214D01*
X76214Y445086D02*X70086D01*
X70000Y445000D01*
X85128D01*
X85214Y445086D01*
X110000Y442000D02*X150000D01*
X84428Y438000D02*X106000D01*
X109000Y435000D01*
Y425000D01*
X106000Y438000D02*X110000Y442000D01*
G54D12*G36*
X144000Y388000D02*Y376000D01*
X156000D01*
Y388000D01*
X144000D01*
G37*
G54D13*X150000Y442000D03*
G54D14*X175000Y375000D03*
G54D12*G36*
X60546Y426847D02*Y422247D01*
X65146D01*
Y426847D01*
X60546D01*
G37*
G36*
X59777D02*Y422247D01*
X64377D01*
Y426847D01*
X59777D01*
G37*
G36*
X59008D02*Y422247D01*
X63608D01*
Y426847D01*
X59008D01*
G37*
G36*
X47022Y428028D02*Y423428D01*
X51622D01*
Y428028D01*
X47022D01*
G37*
G36*
X48085D02*Y423428D01*
X52685D01*
Y428028D01*
X48085D01*
G37*
G36*
X49148D02*Y423428D01*
X53748D01*
Y428028D01*
X49148D01*
G37*
G36*
X60546Y407753D02*Y403153D01*
X65146D01*
Y407753D01*
X60546D01*
G37*
G36*
X59777D02*Y403153D01*
X64377D01*
Y407753D01*
X59777D01*
G37*
G36*
X59008D02*Y403153D01*
X63608D01*
Y407753D01*
X59008D01*
G37*
G36*
X47022Y406572D02*Y401972D01*
X51622D01*
Y406572D01*
X47022D01*
G37*
G36*
X48085D02*Y401972D01*
X52685D01*
Y406572D01*
X48085D01*
G37*
G36*
X49148D02*Y401972D01*
X53748D01*
Y406572D01*
X49148D01*
G37*
G36*
X232000Y438000D02*Y432000D01*
X238000D01*
Y438000D01*
X232000D01*
G37*
G54D15*X235000Y445000D03*
G54D14*X175000D03*
Y415000D03*
G54D16*X231900Y394300D03*
X233800D03*
X235800D03*
X237700D03*
X239700D03*
X241600D03*
X229900Y417900D03*
X231900D03*
X233800D03*
X235800D03*
X237700D03*
X239700D03*
X241600D03*
X243600D03*
X245500D03*
X243600Y394300D03*
G54D12*G36*
X201250Y378750D02*Y371250D01*
X208750D01*
Y378750D01*
X201250D01*
G37*
G54D14*X205000Y415000D03*
Y445000D03*
G54D17*X69000Y408000D03*
X96000Y395000D03*
X72000Y394000D03*
X69000Y423000D03*
X70000Y445000D03*
X109000Y425000D03*
X101000D03*
X112000Y408000D03*
X115000Y383000D03*
X59000Y397000D03*
Y433000D03*
G54D21*X76214Y422000D02*X77000D01*
X76214Y413000D02*X77000D01*
X76214Y405914D02*X77000D01*
X76214Y429086D02*X77000D01*
X76214Y438000D02*X77000D01*
X76214Y445086D02*X77000D01*
X84428Y438000D02*X85214D01*
X84428Y445086D02*X85214D01*
G54D26*G54D27*G54D28*G54D29*G54D27*G54D30*G54D27*G54D12*M02*
