M48
INCH
T12C0.020
T26C0.063
T27C0.052
T28C0.026
T29C0.038
T30C0.039
%
T12
X006900Y040800
X009600Y039500
X007200Y039400
X006900Y042300
X007000Y044500
X010900Y042500
X010100Y042500
X011200Y040800
X011500Y038300
X005900Y039700
X005900Y043300
T28
X006284Y042454
X006207Y042454
X006130Y042454
X004932Y042572
X005038Y042572
X005144Y042572
X006284Y040545
X006207Y040545
X006130Y040545
X004932Y040427
X005038Y040427
X005144Y040427
T29
X023500Y043500
X023500Y044500
T30
X023190Y039430
X023380Y039430
X023580Y039430
X023770Y039430
X023970Y039430
X024160Y039430
X022990Y041790
X023190Y041790
X023380Y041790
X023580Y041790
X023770Y041790
X023970Y041790
X024160Y041790
X024360Y041790
X024550Y041790
X024360Y039430
T27
X017500Y037500
X017500Y044500
X017500Y041500
X020500Y037500
X020500Y041500
X020500Y044500
T26
X015000Y038200
X015000Y044200
M30
