G04 start of page 4 for group -4063 idx -4063 *
G04 Title: (unknown), componentmask *
G04 Creator: pcb 20091103 *
G04 CreationDate: Thu 05 May 2011 07:25:20 AM GMT UTC *
G04 For: gjhurlbu *
G04 Format: Gerber/RS-274X *
G04 PCB-Dimensions: 600000 500000 *
G04 PCB-Coordinate-Origin: lower left *
%MOIN*%
%FSLAX25Y25*%
%LNFRONTMASK*%
%ADD12C,0.0200*%
%ADD31C,0.1260*%
%ADD32C,0.0950*%
%ADD33C,0.0660*%
%ADD34C,0.1000*%
%ADD35R,0.0200X0.0200*%
%ADD36R,0.0600X0.0600*%
%ADD37R,0.0300X0.0300*%
%ADD38R,0.0220X0.0220*%
%ADD39R,0.0572X0.0572*%
%ADD40R,0.0400X0.0400*%
%ADD41C,0.0220*%
G54D12*G36*
X143700Y388300D02*Y375700D01*
X156300D01*
Y388300D01*
X143700D01*
G37*
G54D31*X150000Y442000D03*
G54D32*X175000Y375000D03*
G54D12*G36*
X60046Y427347D02*Y421747D01*
X65646D01*
Y427347D01*
X60046D01*
G37*
G36*
X59277D02*Y421747D01*
X64877D01*
Y427347D01*
X59277D01*
G37*
G36*
X58508D02*Y421747D01*
X64108D01*
Y427347D01*
X58508D01*
G37*
G36*
X46522Y428528D02*Y422928D01*
X52122D01*
Y428528D01*
X46522D01*
G37*
G36*
X47585D02*Y422928D01*
X53185D01*
Y428528D01*
X47585D01*
G37*
G36*
X48648D02*Y422928D01*
X54248D01*
Y428528D01*
X48648D01*
G37*
G36*
X60046Y408253D02*Y402653D01*
X65646D01*
Y408253D01*
X60046D01*
G37*
G36*
X59277D02*Y402653D01*
X64877D01*
Y408253D01*
X59277D01*
G37*
G36*
X58508D02*Y402653D01*
X64108D01*
Y408253D01*
X58508D01*
G37*
G36*
X46522Y407072D02*Y401472D01*
X52122D01*
Y407072D01*
X46522D01*
G37*
G36*
X47585D02*Y401472D01*
X53185D01*
Y407072D01*
X47585D01*
G37*
G36*
X48648D02*Y401472D01*
X54248D01*
Y407072D01*
X48648D01*
G37*
G36*
X231700Y438300D02*Y431700D01*
X238300D01*
Y438300D01*
X231700D01*
G37*
G54D33*X235000Y445000D03*
G54D32*X175000D03*
Y415000D03*
G54D34*X231900Y394300D03*
X233800D03*
X235800D03*
X237700D03*
X239700D03*
X241600D03*
X229900Y417900D03*
X231900D03*
X233800D03*
X235800D03*
X237700D03*
X239700D03*
X241600D03*
X243600D03*
X245500D03*
X243600Y394300D03*
G54D12*G36*
X200250Y379750D02*Y370250D01*
X209750D01*
Y379750D01*
X200250D01*
G37*
G54D32*X205000Y415000D03*
Y445000D03*
G54D35*X58456Y420118D02*X64952D01*
G54D36*X62196Y427600D02*Y425236D01*
G54D37*X57078Y428976D02*Y424547D01*
G54D36*X48220Y425728D02*X55897D01*
X47285Y418789D02*X51517D01*
G54D35*X58456Y417559D02*X64952D01*
X58456Y415000D02*X64952D01*
X58456Y412441D02*X64952D01*
X58456Y409882D02*X64952D01*
G54D36*X62196Y404764D02*Y402400D01*
G54D37*X57078Y405453D02*Y401024D01*
G54D36*X48220Y404272D02*X55897D01*
X47285Y411211D02*X51517D01*
G54D38*X84600Y402400D02*Y400200D01*
X87200Y402400D02*Y400200D01*
X89700Y402400D02*Y400200D01*
X92300Y402400D02*Y400200D01*
G54D39*X86000Y393786D02*Y393000D01*
X78914Y393786D02*Y393000D01*
G54D38*X94900Y402400D02*Y400200D01*
X97400Y402400D02*Y400200D01*
X100000Y402400D02*Y400200D01*
X102500Y402400D02*Y400200D01*
X105100Y402400D02*Y400200D01*
X107700Y402400D02*Y400200D01*
X110200Y402400D02*Y400200D01*
X112800Y402400D02*Y400200D01*
G54D39*X105000Y391000D02*Y390214D01*
G54D38*X115300Y402400D02*Y400200D01*
X117900Y402400D02*Y400200D01*
G54D39*X112086Y391000D02*Y390214D01*
G54D40*X122400Y391000D02*X123000D01*
X122400Y383200D02*X123000D01*
X130600Y387100D02*X131200D01*
G54D38*X84700Y431500D02*Y429300D01*
G54D41*X118000Y431500D02*Y429300D01*
G54D38*X115400Y431500D02*Y429300D01*
X112900Y431500D02*Y429300D01*
X110300Y431500D02*Y429300D01*
X107700Y431500D02*Y429300D01*
X105200Y431500D02*Y429300D01*
X102600Y431500D02*Y429300D01*
X100100Y431500D02*Y429300D01*
X97500Y431500D02*Y429300D01*
X94900Y431500D02*Y429300D01*
X92400Y431500D02*Y429300D01*
X89800Y431500D02*Y429300D01*
X87300Y431500D02*Y429300D01*
M02*
