G04 start of page 11 for group -3984 idx -3984 *
G04 Title: (unknown), fab *
G04 Creator: pcb 20091103 *
G04 CreationDate: Thu 05 May 2011 07:25:20 AM GMT UTC *
G04 For: gjhurlbu *
G04 Format: Gerber/RS-274X *
G04 PCB-Dimensions: 600000 500000 *
G04 PCB-Coordinate-Origin: lower left *
%MOIN*%
%FSLAX25Y25*%
%LNFAB*%
%ADD12C,0.0200*%
%ADD42C,0.0100*%
%ADD44R,0.0080X0.0080*%
%ADD45C,0.0060*%
G54D44*X150000Y382000D02*Y378800D01*
G54D12*G36*
X149453Y382147D02*X152919Y384147D01*
X153319Y383454D01*
X149853Y381454D01*
X149453Y382147D01*
G37*
G36*
X150146Y381454D02*X146680Y383454D01*
X147080Y384147D01*
X150546Y382147D01*
X150146Y381454D01*
G37*
G54D44*X148400Y382000D02*G75*G03X151600Y382000I1600J0D01*G01*
G75*G03X148400Y382000I-1600J0D01*G01*
X150000Y442000D02*Y438800D01*
G54D12*G36*
X149453Y442147D02*X152919Y444147D01*
X153319Y443454D01*
X149853Y441454D01*
X149453Y442147D01*
G37*
G36*
X150146Y441454D02*X146680Y443454D01*
X147080Y444147D01*
X150546Y442147D01*
X150146Y441454D01*
G37*
G54D44*X148400Y442000D02*G75*G03X151600Y442000I1600J0D01*G01*
G75*G03X148400Y442000I-1600J0D01*G01*
X15000Y511250D02*Y508050D01*
G54D12*G36*
X14453Y511396D02*X17919Y513396D01*
X18319Y512703D01*
X14853Y510703D01*
X14453Y511396D01*
G37*
G36*
X15146Y510703D02*X11680Y512703D01*
X12080Y513396D01*
X15546Y511396D01*
X15146Y510703D01*
G37*
G54D44*X13400Y511250D02*G75*G03X16600Y511250I1600J0D01*G01*
G75*G03X13400Y511250I-1600J0D01*G01*
G54D45*X135000Y513500D02*Y512750D01*
X136500Y511250D01*
X138000Y512750D01*
Y513500D02*Y512750D01*
X136500Y511250D02*Y507500D01*
X139801Y510500D02*X142051D01*
X139801Y507500D02*X142801D01*
X139801Y513500D02*Y507500D01*
Y513500D02*X142801D01*
X147603D02*X148353Y512750D01*
X145353Y513500D02*X147603D01*
X144603Y512750D02*X145353Y513500D01*
X144603Y512750D02*Y511250D01*
X145353Y510500D01*
X147603D01*
X148353Y509750D01*
Y508250D01*
X147603Y507500D02*X148353Y508250D01*
X145353Y507500D02*X147603D01*
X144603Y508250D02*X145353Y507500D01*
X135000Y504249D02*X150154D01*
X98000Y512750D02*X98750Y513500D01*
X101000D01*
X101750Y512750D01*
Y511250D01*
X98000Y507500D02*X101750Y511250D01*
X98000Y507500D02*X101750D01*
X98000Y504249D02*X103551D01*
X45000Y508250D02*X45750Y507500D01*
X45000Y512750D02*Y508250D01*
Y512750D02*X45750Y513500D01*
X47250D01*
X48000Y512750D01*
Y508250D01*
X47250Y507500D02*X48000Y508250D01*
X45750Y507500D02*X47250D01*
X45000Y509000D02*X48000Y512000D01*
X49801Y507500D02*X50551D01*
X52353Y508250D02*X53103Y507500D01*
X52353Y512750D02*Y508250D01*
Y512750D02*X53103Y513500D01*
X54603D01*
X55353Y512750D01*
Y508250D01*
X54603Y507500D02*X55353Y508250D01*
X53103Y507500D02*X54603D01*
X52353Y509000D02*X55353Y512000D01*
X59404Y513500D02*X60154Y512750D01*
X57904Y513500D02*X59404D01*
X57154Y512750D02*X57904Y513500D01*
X57154Y512750D02*Y508250D01*
X57904Y507500D01*
X59404Y510500D02*X60154Y509750D01*
X57154Y510500D02*X59404D01*
X57904Y507500D02*X59404D01*
X60154Y508250D01*
Y509750D02*Y508250D01*
X61956Y512750D02*X62706Y513500D01*
X64206D01*
X64956Y512750D01*
Y508250D01*
X64206Y507500D02*X64956Y508250D01*
X62706Y507500D02*X64206D01*
X61956Y508250D02*X62706Y507500D01*
Y510500D02*X64956D01*
X45000Y504249D02*X66757D01*
X203400Y376600D02*X206600D01*
X203400D02*Y373400D01*
X206600D01*
Y376600D02*Y373400D01*
X203400Y416600D02*X206600D01*
X203400D02*Y413400D01*
X206600D01*
Y416600D02*Y413400D01*
X203400Y446600D02*X206600D01*
X203400D02*Y443400D01*
X206600D01*
Y446600D02*Y443400D01*
X173400Y446600D02*X176600D01*
X173400D02*Y443400D01*
X176600D01*
Y446600D02*Y443400D01*
X173400Y416600D02*X176600D01*
X173400D02*Y413400D01*
X176600D01*
Y416600D02*Y413400D01*
X173400Y376600D02*X176600D01*
X173400D02*Y373400D01*
X176600D01*
Y376600D02*Y373400D01*
X13400Y527850D02*X16600D01*
X13400D02*Y524650D01*
X16600D01*
Y527850D02*Y524650D01*
X135000Y528500D02*Y527750D01*
X136500Y526250D01*
X138000Y527750D01*
Y528500D02*Y527750D01*
X136500Y526250D02*Y522500D01*
X139801Y525500D02*X142051D01*
X139801Y522500D02*X142801D01*
X139801Y528500D02*Y522500D01*
Y528500D02*X142801D01*
X147603D02*X148353Y527750D01*
X145353Y528500D02*X147603D01*
X144603Y527750D02*X145353Y528500D01*
X144603Y527750D02*Y526250D01*
X145353Y525500D01*
X147603D01*
X148353Y524750D01*
Y523250D01*
X147603Y522500D02*X148353Y523250D01*
X145353Y522500D02*X147603D01*
X144603Y523250D02*X145353Y522500D01*
X135000Y519249D02*X150154D01*
X100250Y528500D02*X101000Y527750D01*
X98750Y528500D02*X100250D01*
X98000Y527750D02*X98750Y528500D01*
X98000Y527750D02*Y523250D01*
X98750Y522500D01*
X100250Y525500D02*X101000Y524750D01*
X98000Y525500D02*X100250D01*
X98750Y522500D02*X100250D01*
X101000Y523250D01*
Y524750D02*Y523250D01*
X98000Y519249D02*X102801D01*
X45000Y523250D02*X45750Y522500D01*
X45000Y527750D02*Y523250D01*
Y527750D02*X45750Y528500D01*
X47250D01*
X48000Y527750D01*
Y523250D01*
X47250Y522500D02*X48000Y523250D01*
X45750Y522500D02*X47250D01*
X45000Y524000D02*X48000Y527000D01*
X49801Y522500D02*X50551D01*
X52353Y523250D02*X53103Y522500D01*
X52353Y527750D02*Y523250D01*
Y527750D02*X53103Y528500D01*
X54603D01*
X55353Y527750D01*
Y523250D01*
X54603Y522500D02*X55353Y523250D01*
X53103Y522500D02*X54603D01*
X52353Y524000D02*X55353Y527000D01*
X57154Y528500D02*X60154D01*
X57154D02*Y525500D01*
X57904Y526250D01*
X59404D01*
X60154Y525500D01*
Y523250D01*
X59404Y522500D02*X60154Y523250D01*
X57904Y522500D02*X59404D01*
X57154Y523250D02*X57904Y522500D01*
X61956Y527750D02*X62706Y528500D01*
X64956D01*
X65706Y527750D01*
Y526250D01*
X61956Y522500D02*X65706Y526250D01*
X61956Y522500D02*X65706D01*
X45000Y519249D02*X67507D01*
X229100Y417900D02*G75*G03X230700Y417900I800J0D01*G01*
G75*G03X229100Y417900I-800J0D01*G01*
X231100D02*G75*G03X232700Y417900I800J0D01*G01*
G75*G03X231100Y417900I-800J0D01*G01*
X233000D02*G75*G03X234600Y417900I800J0D01*G01*
G75*G03X233000Y417900I-800J0D01*G01*
X235000D02*G75*G03X236600Y417900I800J0D01*G01*
G75*G03X235000Y417900I-800J0D01*G01*
X236900D02*G75*G03X238500Y417900I800J0D01*G01*
G75*G03X236900Y417900I-800J0D01*G01*
X238900D02*G75*G03X240500Y417900I800J0D01*G01*
G75*G03X238900Y417900I-800J0D01*G01*
X240800D02*G75*G03X242400Y417900I800J0D01*G01*
G75*G03X240800Y417900I-800J0D01*G01*
X242800D02*G75*G03X244400Y417900I800J0D01*G01*
G75*G03X242800Y417900I-800J0D01*G01*
X244700D02*G75*G03X246300Y417900I800J0D01*G01*
G75*G03X244700Y417900I-800J0D01*G01*
X231100Y394300D02*G75*G03X232700Y394300I800J0D01*G01*
G75*G03X231100Y394300I-800J0D01*G01*
X233000D02*G75*G03X234600Y394300I800J0D01*G01*
G75*G03X233000Y394300I-800J0D01*G01*
X235000D02*G75*G03X236600Y394300I800J0D01*G01*
G75*G03X235000Y394300I-800J0D01*G01*
X236900D02*G75*G03X238500Y394300I800J0D01*G01*
G75*G03X236900Y394300I-800J0D01*G01*
X238900D02*G75*G03X240500Y394300I800J0D01*G01*
G75*G03X238900Y394300I-800J0D01*G01*
X240800D02*G75*G03X242400Y394300I800J0D01*G01*
G75*G03X240800Y394300I-800J0D01*G01*
X242800D02*G75*G03X244400Y394300I800J0D01*G01*
G75*G03X242800Y394300I-800J0D01*G01*
X14200Y541250D02*G75*G03X15800Y541250I800J0D01*G01*
G75*G03X14200Y541250I-800J0D01*G01*
X135000Y543500D02*Y542750D01*
X136500Y541250D01*
X138000Y542750D01*
Y543500D02*Y542750D01*
X136500Y541250D02*Y537500D01*
X139801Y540500D02*X142051D01*
X139801Y537500D02*X142801D01*
X139801Y543500D02*Y537500D01*
Y543500D02*X142801D01*
X147603D02*X148353Y542750D01*
X145353Y543500D02*X147603D01*
X144603Y542750D02*X145353Y543500D01*
X144603Y542750D02*Y541250D01*
X145353Y540500D01*
X147603D01*
X148353Y539750D01*
Y538250D01*
X147603Y537500D02*X148353Y538250D01*
X145353Y537500D02*X147603D01*
X144603Y538250D02*X145353Y537500D01*
X135000Y534249D02*X150154D01*
X98750Y537500D02*X100250D01*
X99500Y543500D02*Y537500D01*
X98000Y542000D02*X99500Y543500D01*
X104301D02*X105051Y542750D01*
X102801Y543500D02*X104301D01*
X102051Y542750D02*X102801Y543500D01*
X102051Y542750D02*Y538250D01*
X102801Y537500D01*
X104301Y540500D02*X105051Y539750D01*
X102051Y540500D02*X104301D01*
X102801Y537500D02*X104301D01*
X105051Y538250D01*
Y539750D02*Y538250D01*
X98000Y534249D02*X106853D01*
X45000Y538250D02*X45750Y537500D01*
X45000Y542750D02*Y538250D01*
Y542750D02*X45750Y543500D01*
X47250D01*
X48000Y542750D01*
Y538250D01*
X47250Y537500D02*X48000Y538250D01*
X45750Y537500D02*X47250D01*
X45000Y539000D02*X48000Y542000D01*
X49801Y537500D02*X50551D01*
X52353Y538250D02*X53103Y537500D01*
X52353Y542750D02*Y538250D01*
Y542750D02*X53103Y543500D01*
X54603D01*
X55353Y542750D01*
Y538250D01*
X54603Y537500D02*X55353Y538250D01*
X53103Y537500D02*X54603D01*
X52353Y539000D02*X55353Y542000D01*
X57154Y542750D02*X57904Y543500D01*
X59404D01*
X60154Y542750D01*
Y538250D01*
X59404Y537500D02*X60154Y538250D01*
X57904Y537500D02*X59404D01*
X57154Y538250D02*X57904Y537500D01*
Y540500D02*X60154D01*
X61956Y537500D02*X64956Y540500D01*
Y542750D02*Y540500D01*
X64206Y543500D02*X64956Y542750D01*
X62706Y543500D02*X64206D01*
X61956Y542750D02*X62706Y543500D01*
X61956Y542750D02*Y541250D01*
X62706Y540500D01*
X64956D01*
X45000Y534249D02*X66757D01*
X233800Y436200D02*X236200Y433800D01*
X233800D02*X236200Y436200D01*
X233800Y446200D02*X236200Y443800D01*
X233800D02*X236200Y446200D01*
X13800Y557450D02*X16200Y555050D01*
X13800D02*X16200Y557450D01*
X135000Y558500D02*Y557750D01*
X136500Y556250D01*
X138000Y557750D01*
Y558500D02*Y557750D01*
X136500Y556250D02*Y552500D01*
X139801Y555500D02*X142051D01*
X139801Y552500D02*X142801D01*
X139801Y558500D02*Y552500D01*
Y558500D02*X142801D01*
X147603D02*X148353Y557750D01*
X145353Y558500D02*X147603D01*
X144603Y557750D02*X145353Y558500D01*
X144603Y557750D02*Y556250D01*
X145353Y555500D01*
X147603D01*
X148353Y554750D01*
Y553250D01*
X147603Y552500D02*X148353Y553250D01*
X145353Y552500D02*X147603D01*
X144603Y553250D02*X145353Y552500D01*
X135000Y549249D02*X150154D01*
X98000Y557750D02*X98750Y558500D01*
X101000D01*
X101750Y557750D01*
Y556250D01*
X98000Y552500D02*X101750Y556250D01*
X98000Y552500D02*X101750D01*
X98000Y549249D02*X103551D01*
X45000Y553250D02*X45750Y552500D01*
X45000Y557750D02*Y553250D01*
Y557750D02*X45750Y558500D01*
X47250D01*
X48000Y557750D01*
Y553250D01*
X47250Y552500D02*X48000Y553250D01*
X45750Y552500D02*X47250D01*
X45000Y554000D02*X48000Y557000D01*
X49801Y552500D02*X50551D01*
X52353Y553250D02*X53103Y552500D01*
X52353Y557750D02*Y553250D01*
Y557750D02*X53103Y558500D01*
X54603D01*
X55353Y557750D01*
Y553250D01*
X54603Y552500D02*X55353Y553250D01*
X53103Y552500D02*X54603D01*
X52353Y554000D02*X55353Y557000D01*
X57154Y557750D02*X57904Y558500D01*
X59404D01*
X60154Y557750D01*
Y553250D01*
X59404Y552500D02*X60154Y553250D01*
X57904Y552500D02*X59404D01*
X57154Y553250D02*X57904Y552500D01*
Y555500D02*X60154D01*
X61956Y553250D02*X62706Y552500D01*
X61956Y554750D02*Y553250D01*
Y554750D02*X62706Y555500D01*
X64206D01*
X64956Y554750D01*
Y553250D01*
X64206Y552500D02*X64956Y553250D01*
X62706Y552500D02*X64206D01*
X61956Y556250D02*X62706Y555500D01*
X61956Y557750D02*Y556250D01*
Y557750D02*X62706Y558500D01*
X64206D01*
X64956Y557750D01*
Y556250D01*
X64206Y555500D02*X64956Y556250D01*
X45000Y549249D02*X66757D01*
X62846Y426147D02*Y422947D01*
X61246Y424547D02*X64446D01*
X62077Y426147D02*Y422947D01*
X60477Y424547D02*X63677D01*
X61308Y426147D02*Y422947D01*
X59708Y424547D02*X62908D01*
X62846Y407053D02*Y403853D01*
X61246Y405453D02*X64446D01*
X62077Y407053D02*Y403853D01*
X60477Y405453D02*X63677D01*
X61308Y407053D02*Y403853D01*
X59708Y405453D02*X62908D01*
X49322Y427328D02*Y424128D01*
X47722Y425728D02*X50922D01*
X50385Y427328D02*Y424128D01*
X48785Y425728D02*X51985D01*
X51448Y427328D02*Y424128D01*
X49848Y425728D02*X53048D01*
X49322Y405872D02*Y402672D01*
X47722Y404272D02*X50922D01*
X50385Y405872D02*Y402672D01*
X48785Y404272D02*X51985D01*
X51448Y405872D02*Y402672D01*
X49848Y404272D02*X53048D01*
X15000Y572850D02*Y569650D01*
X13400Y571250D02*X16600D01*
X135000Y573500D02*Y572750D01*
X136500Y571250D01*
X138000Y572750D01*
Y573500D02*Y572750D01*
X136500Y571250D02*Y567500D01*
X139801Y570500D02*X142051D01*
X139801Y567500D02*X142801D01*
X139801Y573500D02*Y567500D01*
Y573500D02*X142801D01*
X147603D02*X148353Y572750D01*
X145353Y573500D02*X147603D01*
X144603Y572750D02*X145353Y573500D01*
X144603Y572750D02*Y571250D01*
X145353Y570500D01*
X147603D01*
X148353Y569750D01*
Y568250D01*
X147603Y567500D02*X148353Y568250D01*
X145353Y567500D02*X147603D01*
X144603Y568250D02*X145353Y567500D01*
X135000Y564249D02*X150154D01*
X98750Y567500D02*X100250D01*
X99500Y573500D02*Y567500D01*
X98000Y572000D02*X99500Y573500D01*
X102051Y572750D02*X102801Y573500D01*
X105051D01*
X105801Y572750D01*
Y571250D01*
X102051Y567500D02*X105801Y571250D01*
X102051Y567500D02*X105801D01*
X98000Y564249D02*X107603D01*
X45000Y568250D02*X45750Y567500D01*
X45000Y572750D02*Y568250D01*
Y572750D02*X45750Y573500D01*
X47250D01*
X48000Y572750D01*
Y568250D01*
X47250Y567500D02*X48000Y568250D01*
X45750Y567500D02*X47250D01*
X45000Y569000D02*X48000Y572000D01*
X49801Y567500D02*X50551D01*
X52353Y568250D02*X53103Y567500D01*
X52353Y572750D02*Y568250D01*
Y572750D02*X53103Y573500D01*
X54603D01*
X55353Y572750D01*
Y568250D01*
X54603Y567500D02*X55353Y568250D01*
X53103Y567500D02*X54603D01*
X52353Y569000D02*X55353Y572000D01*
X57154Y572750D02*X57904Y573500D01*
X60154D01*
X60904Y572750D01*
Y571250D01*
X57154Y567500D02*X60904Y571250D01*
X57154Y567500D02*X60904D01*
X64956Y573500D02*X65706Y572750D01*
X63456Y573500D02*X64956D01*
X62706Y572750D02*X63456Y573500D01*
X62706Y572750D02*Y568250D01*
X63456Y567500D01*
X64956Y570500D02*X65706Y569750D01*
X62706Y570500D02*X64956D01*
X63456Y567500D02*X64956D01*
X65706Y568250D01*
Y569750D02*Y568250D01*
X45000Y564249D02*X67507D01*
X69000Y423000D02*Y421400D01*
Y423000D02*X70386Y423800D01*
X69000Y423000D02*X67614Y423800D01*
X69000Y408000D02*Y406400D01*
Y408000D02*X70386Y408800D01*
X69000Y408000D02*X67614Y408800D01*
X70000Y445000D02*Y443400D01*
Y445000D02*X71386Y445800D01*
X70000Y445000D02*X68614Y445800D01*
X109000Y425000D02*Y423400D01*
Y425000D02*X110386Y425800D01*
X109000Y425000D02*X107614Y425800D01*
X101000Y425000D02*Y423400D01*
Y425000D02*X102386Y425800D01*
X101000Y425000D02*X99614Y425800D01*
X96000Y395000D02*Y393400D01*
Y395000D02*X97386Y395800D01*
X96000Y395000D02*X94614Y395800D01*
X72000Y394000D02*Y392400D01*
Y394000D02*X73386Y394800D01*
X72000Y394000D02*X70614Y394800D01*
X112000Y408000D02*Y406400D01*
Y408000D02*X113386Y408800D01*
X112000Y408000D02*X110614Y408800D01*
X115000Y383000D02*Y381400D01*
Y383000D02*X116386Y383800D01*
X115000Y383000D02*X113614Y383800D01*
X59000Y397000D02*Y395400D01*
Y397000D02*X60386Y397800D01*
X59000Y397000D02*X57614Y397800D01*
X59000Y433000D02*Y431400D01*
Y433000D02*X60386Y433800D01*
X59000Y433000D02*X57614Y433800D01*
X15000Y586250D02*Y584650D01*
Y586250D02*X16386Y587050D01*
X15000Y586250D02*X13614Y587050D01*
X135000Y588500D02*Y587750D01*
X136500Y586250D01*
X138000Y587750D01*
Y588500D02*Y587750D01*
X136500Y586250D02*Y582500D01*
X139801Y585500D02*X142051D01*
X139801Y582500D02*X142801D01*
X139801Y588500D02*Y582500D01*
Y588500D02*X142801D01*
X147603D02*X148353Y587750D01*
X145353Y588500D02*X147603D01*
X144603Y587750D02*X145353Y588500D01*
X144603Y587750D02*Y586250D01*
X145353Y585500D01*
X147603D01*
X148353Y584750D01*
Y583250D01*
X147603Y582500D02*X148353Y583250D01*
X145353Y582500D02*X147603D01*
X144603Y583250D02*X145353Y582500D01*
X135000Y579249D02*X150154D01*
X98750Y582500D02*X100250D01*
X99500Y588500D02*Y582500D01*
X98000Y587000D02*X99500Y588500D01*
X102801Y582500D02*X104301D01*
X103551Y588500D02*Y582500D01*
X102051Y587000D02*X103551Y588500D01*
X98000Y579249D02*X106103D01*
X45000Y583250D02*X45750Y582500D01*
X45000Y587750D02*Y583250D01*
Y587750D02*X45750Y588500D01*
X47250D01*
X48000Y587750D01*
Y583250D01*
X47250Y582500D02*X48000Y583250D01*
X45750Y582500D02*X47250D01*
X45000Y584000D02*X48000Y587000D01*
X49801Y582500D02*X50551D01*
X52353Y583250D02*X53103Y582500D01*
X52353Y587750D02*Y583250D01*
Y587750D02*X53103Y588500D01*
X54603D01*
X55353Y587750D01*
Y583250D01*
X54603Y582500D02*X55353Y583250D01*
X53103Y582500D02*X54603D01*
X52353Y584000D02*X55353Y587000D01*
X57154Y587750D02*X57904Y588500D01*
X60154D01*
X60904Y587750D01*
Y586250D01*
X57154Y582500D02*X60904Y586250D01*
X57154Y582500D02*X60904D01*
X62706Y583250D02*X63456Y582500D01*
X62706Y587750D02*Y583250D01*
Y587750D02*X63456Y588500D01*
X64956D01*
X65706Y587750D01*
Y583250D01*
X64956Y582500D02*X65706Y583250D01*
X63456Y582500D02*X64956D01*
X62706Y584000D02*X65706Y587000D01*
X45000Y579249D02*X67507D01*
X3000Y603500D02*X3750Y602750D01*
X750Y603500D02*X3000D01*
X0Y602750D02*X750Y603500D01*
X0Y602750D02*Y601250D01*
X750Y600500D01*
X3000D01*
X3750Y599750D01*
Y598250D01*
X3000Y597500D02*X3750Y598250D01*
X750Y597500D02*X3000D01*
X0Y598250D02*X750Y597500D01*
X5551Y600500D02*Y598250D01*
X6301Y597500D01*
X8551Y600500D02*Y596000D01*
X7801Y595250D02*X8551Y596000D01*
X6301Y595250D02*X7801D01*
X5551Y596000D02*X6301Y595250D01*
Y597500D02*X7801D01*
X8551Y598250D01*
X11103Y599750D02*Y597500D01*
Y599750D02*X11853Y600500D01*
X12603D01*
X13353Y599750D01*
Y597500D01*
Y599750D02*X14103Y600500D01*
X14853D01*
X15603Y599750D01*
Y597500D01*
X10353Y600500D02*X11103Y599750D01*
X17404Y603500D02*Y597500D01*
Y598250D02*X18154Y597500D01*
X19654D01*
X20404Y598250D01*
Y599750D02*Y598250D01*
X19654Y600500D02*X20404Y599750D01*
X18154Y600500D02*X19654D01*
X17404Y599750D02*X18154Y600500D01*
X22206Y599750D02*Y598250D01*
Y599750D02*X22956Y600500D01*
X24456D01*
X25206Y599750D01*
Y598250D01*
X24456Y597500D02*X25206Y598250D01*
X22956Y597500D02*X24456D01*
X22206Y598250D02*X22956Y597500D01*
X27007Y603500D02*Y598250D01*
X27757Y597500D01*
X41750Y603500D02*Y597500D01*
X44000Y603500D02*X44750Y602750D01*
Y598250D01*
X44000Y597500D02*X44750Y598250D01*
X41000Y597500D02*X44000D01*
X41000Y603500D02*X44000D01*
X46551Y602000D02*Y601250D01*
Y599750D02*Y597500D01*
X50303Y600500D02*X51053Y599750D01*
X48803Y600500D02*X50303D01*
X48053Y599750D02*X48803Y600500D01*
X48053Y599750D02*Y598250D01*
X48803Y597500D01*
X51053Y600500D02*Y598250D01*
X51803Y597500D01*
X48803D02*X50303D01*
X51053Y598250D01*
X54354Y599750D02*Y597500D01*
Y599750D02*X55104Y600500D01*
X55854D01*
X56604Y599750D01*
Y597500D01*
Y599750D02*X57354Y600500D01*
X58104D01*
X58854Y599750D01*
Y597500D01*
X53604Y600500D02*X54354Y599750D01*
X60656Y597500D02*X61406D01*
X65907Y598250D02*X66657Y597500D01*
X65907Y602750D02*X66657Y603500D01*
X65907Y602750D02*Y598250D01*
X68459Y603500D02*X69959D01*
X69209D02*Y597500D01*
X68459D02*X69959D01*
X72510Y599750D02*Y597500D01*
Y599750D02*X73260Y600500D01*
X74010D01*
X74760Y599750D01*
Y597500D01*
X71760Y600500D02*X72510Y599750D01*
X77312Y600500D02*X79562D01*
X76562Y599750D02*X77312Y600500D01*
X76562Y599750D02*Y598250D01*
X77312Y597500D01*
X79562D01*
X81363Y603500D02*Y597500D01*
Y599750D02*X82113Y600500D01*
X83613D01*
X84363Y599750D01*
Y597500D01*
X86165Y603500D02*X86915Y602750D01*
Y598250D01*
X86165Y597500D02*X86915Y598250D01*
X95750Y597500D02*X98000D01*
X95000Y598250D02*X95750Y597500D01*
X95000Y602750D02*Y598250D01*
Y602750D02*X95750Y603500D01*
X98000D01*
X99801Y599750D02*Y598250D01*
Y599750D02*X100551Y600500D01*
X102051D01*
X102801Y599750D01*
Y598250D01*
X102051Y597500D02*X102801Y598250D01*
X100551Y597500D02*X102051D01*
X99801Y598250D02*X100551Y597500D01*
X104603Y600500D02*Y598250D01*
X105353Y597500D01*
X106853D01*
X107603Y598250D01*
Y600500D02*Y598250D01*
X110154Y599750D02*Y597500D01*
Y599750D02*X110904Y600500D01*
X111654D01*
X112404Y599750D01*
Y597500D01*
X109404Y600500D02*X110154Y599750D01*
X114956Y603500D02*Y598250D01*
X115706Y597500D01*
X114206Y601250D02*X115706D01*
X130750Y603500D02*Y597500D01*
X130000Y603500D02*X133000D01*
X133750Y602750D01*
Y601250D01*
X133000Y600500D02*X133750Y601250D01*
X130750Y600500D02*X133000D01*
X135551Y603500D02*Y598250D01*
X136301Y597500D01*
X140053Y600500D02*X140803Y599750D01*
X138553Y600500D02*X140053D01*
X137803Y599750D02*X138553Y600500D01*
X137803Y599750D02*Y598250D01*
X138553Y597500D01*
X140803Y600500D02*Y598250D01*
X141553Y597500D01*
X138553D02*X140053D01*
X140803Y598250D01*
X144104Y603500D02*Y598250D01*
X144854Y597500D01*
X143354Y601250D02*X144854D01*
X147106Y597500D02*X149356D01*
X146356Y598250D02*X147106Y597500D01*
X146356Y599750D02*Y598250D01*
Y599750D02*X147106Y600500D01*
X148606D01*
X149356Y599750D01*
X146356Y599000D02*X149356D01*
Y599750D02*Y599000D01*
X154157Y603500D02*Y597500D01*
X153407D02*X154157Y598250D01*
X151907Y597500D02*X153407D01*
X151157Y598250D02*X151907Y597500D01*
X151157Y599750D02*Y598250D01*
Y599750D02*X151907Y600500D01*
X153407D01*
X154157Y599750D01*
X157459Y600500D02*Y599750D01*
Y598250D02*Y597500D01*
X155959Y602750D02*Y602000D01*
Y602750D02*X156709Y603500D01*
X158209D01*
X158959Y602750D01*
Y602000D01*
X157459Y600500D02*X158959Y602000D01*
X0Y618500D02*X3000D01*
X1500D02*Y612500D01*
X4801Y618500D02*Y612500D01*
Y614750D02*X5551Y615500D01*
X7051D01*
X7801Y614750D01*
Y612500D01*
X10353D02*X12603D01*
X9603Y613250D02*X10353Y612500D01*
X9603Y614750D02*Y613250D01*
Y614750D02*X10353Y615500D01*
X11853D01*
X12603Y614750D01*
X9603Y614000D02*X12603D01*
Y614750D02*Y614000D01*
X15154Y614750D02*Y612500D01*
Y614750D02*X15904Y615500D01*
X17404D01*
X14404D02*X15154Y614750D01*
X19956Y612500D02*X22206D01*
X19206Y613250D02*X19956Y612500D01*
X19206Y614750D02*Y613250D01*
Y614750D02*X19956Y615500D01*
X21456D01*
X22206Y614750D01*
X19206Y614000D02*X22206D01*
Y614750D02*Y614000D01*
X28957Y615500D02*X29707Y614750D01*
X27457Y615500D02*X28957D01*
X26707Y614750D02*X27457Y615500D01*
X26707Y614750D02*Y613250D01*
X27457Y612500D01*
X29707Y615500D02*Y613250D01*
X30457Y612500D01*
X27457D02*X28957D01*
X29707Y613250D01*
X33009Y614750D02*Y612500D01*
Y614750D02*X33759Y615500D01*
X35259D01*
X32259D02*X33009Y614750D01*
X37810Y612500D02*X40060D01*
X37060Y613250D02*X37810Y612500D01*
X37060Y614750D02*Y613250D01*
Y614750D02*X37810Y615500D01*
X39310D01*
X40060Y614750D01*
X37060Y614000D02*X40060D01*
Y614750D02*Y614000D01*
X46812Y618500D02*X47562Y617750D01*
X45312Y618500D02*X46812D01*
X44562Y617750D02*X45312Y618500D01*
X44562Y617750D02*Y613250D01*
X45312Y612500D01*
X46812Y615500D02*X47562Y614750D01*
X44562Y615500D02*X46812D01*
X45312Y612500D02*X46812D01*
X47562Y613250D01*
Y614750D02*Y613250D01*
X55063Y618500D02*Y612500D01*
X54313D02*X55063Y613250D01*
X52813Y612500D02*X54313D01*
X52063Y613250D02*X52813Y612500D01*
X52063Y614750D02*Y613250D01*
Y614750D02*X52813Y615500D01*
X54313D01*
X55063Y614750D01*
X56865Y617000D02*Y616250D01*
Y614750D02*Y612500D01*
X59116Y617750D02*Y612500D01*
Y617750D02*X59866Y618500D01*
X60616D01*
X58366Y615500D02*X59866D01*
X62868Y617750D02*Y612500D01*
Y617750D02*X63618Y618500D01*
X64368D01*
X62118Y615500D02*X63618D01*
X66619Y612500D02*X68869D01*
X65869Y613250D02*X66619Y612500D01*
X65869Y614750D02*Y613250D01*
Y614750D02*X66619Y615500D01*
X68119D01*
X68869Y614750D01*
X65869Y614000D02*X68869D01*
Y614750D02*Y614000D01*
X71421Y614750D02*Y612500D01*
Y614750D02*X72171Y615500D01*
X73671D01*
X70671D02*X71421Y614750D01*
X76222Y612500D02*X78472D01*
X75472Y613250D02*X76222Y612500D01*
X75472Y614750D02*Y613250D01*
Y614750D02*X76222Y615500D01*
X77722D01*
X78472Y614750D01*
X75472Y614000D02*X78472D01*
Y614750D02*Y614000D01*
X81024Y614750D02*Y612500D01*
Y614750D02*X81774Y615500D01*
X82524D01*
X83274Y614750D01*
Y612500D01*
X80274Y615500D02*X81024Y614750D01*
X85825Y618500D02*Y613250D01*
X86575Y612500D01*
X85075Y616250D02*X86575D01*
X93777Y618500D02*Y612500D01*
X93027D02*X93777Y613250D01*
X91527Y612500D02*X93027D01*
X90777Y613250D02*X91527Y612500D01*
X90777Y614750D02*Y613250D01*
Y614750D02*X91527Y615500D01*
X93027D01*
X93777Y614750D01*
X96328D02*Y612500D01*
Y614750D02*X97078Y615500D01*
X98578D01*
X95578D02*X96328Y614750D01*
X100380Y617000D02*Y616250D01*
Y614750D02*Y612500D01*
X101881Y618500D02*Y613250D01*
X102631Y612500D01*
X104133Y618500D02*Y613250D01*
X104883Y612500D01*
X109834D02*X112084D01*
X112834Y613250D01*
X112084Y614000D02*X112834Y613250D01*
X109834Y614000D02*X112084D01*
X109084Y614750D02*X109834Y614000D01*
X109084Y614750D02*X109834Y615500D01*
X112084D01*
X112834Y614750D01*
X109084Y613250D02*X109834Y612500D01*
X114636Y617000D02*Y616250D01*
Y614750D02*Y612500D01*
X116137Y615500D02*X119137D01*
X116137Y612500D02*X119137Y615500D01*
X116137Y612500D02*X119137D01*
X121689D02*X123939D01*
X120939Y613250D02*X121689Y612500D01*
X120939Y614750D02*Y613250D01*
Y614750D02*X121689Y615500D01*
X123189D01*
X123939Y614750D01*
X120939Y614000D02*X123939D01*
Y614750D02*Y614000D01*
X126490Y612500D02*X128740D01*
X129490Y613250D01*
X128740Y614000D02*X129490Y613250D01*
X126490Y614000D02*X128740D01*
X125740Y614750D02*X126490Y614000D01*
X125740Y614750D02*X126490Y615500D01*
X128740D01*
X129490Y614750D01*
X125740Y613250D02*X126490Y612500D01*
X133992Y615500D02*Y613250D01*
X134742Y612500D01*
X136242D01*
X136992Y613250D01*
Y615500D02*Y613250D01*
X139543Y612500D02*X141793D01*
X142543Y613250D01*
X141793Y614000D02*X142543Y613250D01*
X139543Y614000D02*X141793D01*
X138793Y614750D02*X139543Y614000D01*
X138793Y614750D02*X139543Y615500D01*
X141793D01*
X142543Y614750D01*
X138793Y613250D02*X139543Y612500D01*
X145095D02*X147345D01*
X144345Y613250D02*X145095Y612500D01*
X144345Y614750D02*Y613250D01*
Y614750D02*X145095Y615500D01*
X146595D01*
X147345Y614750D01*
X144345Y614000D02*X147345D01*
Y614750D02*Y614000D01*
X152146Y618500D02*Y612500D01*
X151396D02*X152146Y613250D01*
X149896Y612500D02*X151396D01*
X149146Y613250D02*X149896Y612500D01*
X149146Y614750D02*Y613250D01*
Y614750D02*X149896Y615500D01*
X151396D01*
X152146Y614750D01*
X156648Y617000D02*Y616250D01*
Y614750D02*Y612500D01*
X158899Y614750D02*Y612500D01*
Y614750D02*X159649Y615500D01*
X160399D01*
X161149Y614750D01*
Y612500D01*
X158149Y615500D02*X158899Y614750D01*
X166401Y618500D02*Y613250D01*
X167151Y612500D01*
X165651Y616250D02*X167151D01*
X168652Y618500D02*Y612500D01*
Y614750D02*X169402Y615500D01*
X170902D01*
X171652Y614750D01*
Y612500D01*
X173454Y617000D02*Y616250D01*
Y614750D02*Y612500D01*
X175705D02*X177955D01*
X178705Y613250D01*
X177955Y614000D02*X178705Y613250D01*
X175705Y614000D02*X177955D01*
X174955Y614750D02*X175705Y614000D01*
X174955Y614750D02*X175705Y615500D01*
X177955D01*
X178705Y614750D01*
X174955Y613250D02*X175705Y612500D01*
X183207Y618500D02*Y613250D01*
X183957Y612500D01*
X187708Y615500D02*X188458Y614750D01*
X186208Y615500D02*X187708D01*
X185458Y614750D02*X186208Y615500D01*
X185458Y614750D02*Y613250D01*
X186208Y612500D01*
X188458Y615500D02*Y613250D01*
X189208Y612500D01*
X186208D02*X187708D01*
X188458Y613250D01*
X191010Y615500D02*Y613250D01*
X191760Y612500D01*
X194010Y615500D02*Y611000D01*
X193260Y610250D02*X194010Y611000D01*
X191760Y610250D02*X193260D01*
X191010Y611000D02*X191760Y610250D01*
Y612500D02*X193260D01*
X194010Y613250D01*
X195811Y614750D02*Y613250D01*
Y614750D02*X196561Y615500D01*
X198061D01*
X198811Y614750D01*
Y613250D01*
X198061Y612500D02*X198811Y613250D01*
X196561Y612500D02*X198061D01*
X195811Y613250D02*X196561Y612500D01*
X200613Y615500D02*Y613250D01*
X201363Y612500D01*
X202863D01*
X203613Y613250D01*
Y615500D02*Y613250D01*
X206164Y618500D02*Y613250D01*
X206914Y612500D01*
X205414Y616250D02*X206914D01*
X208416Y611000D02*X209916Y612500D01*
X214417Y615500D02*X217417Y618500D01*
X214417Y615500D02*X218167D01*
X217417Y618500D02*Y612500D01*
X219969D02*X222969Y615500D01*
Y617750D02*Y615500D01*
X222219Y618500D02*X222969Y617750D01*
X220719Y618500D02*X222219D01*
X219969Y617750D02*X220719Y618500D01*
X219969Y617750D02*Y616250D01*
X220719Y615500D01*
X222969D01*
X227470Y618500D02*Y612500D01*
Y614750D02*X228220Y615500D01*
X229720D01*
X230470Y614750D01*
Y612500D01*
X232272Y614750D02*Y613250D01*
Y614750D02*X233022Y615500D01*
X234522D01*
X235272Y614750D01*
Y613250D01*
X234522Y612500D02*X235272Y613250D01*
X233022Y612500D02*X234522D01*
X232272Y613250D02*X233022Y612500D01*
X237073Y618500D02*Y613250D01*
X237823Y612500D01*
X240075D02*X242325D01*
X239325Y613250D02*X240075Y612500D01*
X239325Y614750D02*Y613250D01*
Y614750D02*X240075Y615500D01*
X241575D01*
X242325Y614750D01*
X239325Y614000D02*X242325D01*
Y614750D02*Y614000D01*
X244876Y612500D02*X247126D01*
X247876Y613250D01*
X247126Y614000D02*X247876Y613250D01*
X244876Y614000D02*X247126D01*
X244126Y614750D02*X244876Y614000D01*
X244126Y614750D02*X244876Y615500D01*
X247126D01*
X247876Y614750D01*
X244126Y613250D02*X244876Y612500D01*
X253128Y618500D02*Y613250D01*
X253878Y612500D01*
X252378Y616250D02*X253878D01*
X255379Y614750D02*Y613250D01*
Y614750D02*X256129Y615500D01*
X257629D01*
X258379Y614750D01*
Y613250D01*
X257629Y612500D02*X258379Y613250D01*
X256129Y612500D02*X257629D01*
X255379Y613250D02*X256129Y612500D01*
X260931Y618500D02*Y613250D01*
X261681Y612500D01*
X260181Y616250D02*X261681D01*
X265432Y615500D02*X266182Y614750D01*
X263932Y615500D02*X265432D01*
X263182Y614750D02*X263932Y615500D01*
X263182Y614750D02*Y613250D01*
X263932Y612500D01*
X266182Y615500D02*Y613250D01*
X266932Y612500D01*
X263932D02*X265432D01*
X266182Y613250D01*
X268734Y618500D02*Y613250D01*
X269484Y612500D01*
G54D42*X0Y500000D02*X600000D01*
X0D02*Y0D01*
X600000Y500000D02*Y0D01*
X0D02*X600000D01*
G54D45*X200000Y513500D02*Y507500D01*
Y513500D02*X202250Y511250D01*
X204500Y513500D01*
Y507500D01*
X208551Y510500D02*X209301Y509750D01*
X207051Y510500D02*X208551D01*
X206301Y509750D02*X207051Y510500D01*
X206301Y509750D02*Y508250D01*
X207051Y507500D01*
X209301Y510500D02*Y508250D01*
X210051Y507500D01*
X207051D02*X208551D01*
X209301Y508250D01*
X211853Y510500D02*X214853Y507500D01*
X211853D02*X214853Y510500D01*
X216654Y512000D02*Y511250D01*
Y509750D02*Y507500D01*
X218906Y509750D02*Y507500D01*
Y509750D02*X219656Y510500D01*
X220406D01*
X221156Y509750D01*
Y507500D01*
Y509750D02*X221906Y510500D01*
X222656D01*
X223406Y509750D01*
Y507500D01*
X218156Y510500D02*X218906Y509750D01*
X225207Y510500D02*Y508250D01*
X225957Y507500D01*
X227457D01*
X228207Y508250D01*
Y510500D02*Y508250D01*
X230759Y509750D02*Y507500D01*
Y509750D02*X231509Y510500D01*
X232259D01*
X233009Y509750D01*
Y507500D01*
Y509750D02*X233759Y510500D01*
X234509D01*
X235259Y509750D01*
Y507500D01*
X230009Y510500D02*X230759Y509750D01*
X240510Y513500D02*Y507500D01*
X242760Y513500D02*X243510Y512750D01*
Y508250D01*
X242760Y507500D02*X243510Y508250D01*
X239760Y507500D02*X242760D01*
X239760Y513500D02*X242760D01*
X245312Y512000D02*Y511250D01*
Y509750D02*Y507500D01*
X247563Y509750D02*Y507500D01*
Y509750D02*X248313Y510500D01*
X249063D01*
X249813Y509750D01*
Y507500D01*
Y509750D02*X250563Y510500D01*
X251313D01*
X252063Y509750D01*
Y507500D01*
X246813Y510500D02*X247563Y509750D01*
X254615Y507500D02*X256865D01*
X253865Y508250D02*X254615Y507500D01*
X253865Y509750D02*Y508250D01*
Y509750D02*X254615Y510500D01*
X256115D01*
X256865Y509750D01*
X253865Y509000D02*X256865D01*
Y509750D02*Y509000D01*
X259416Y509750D02*Y507500D01*
Y509750D02*X260166Y510500D01*
X260916D01*
X261666Y509750D01*
Y507500D01*
X258666Y510500D02*X259416Y509750D01*
X264218Y507500D02*X266468D01*
X267218Y508250D01*
X266468Y509000D02*X267218Y508250D01*
X264218Y509000D02*X266468D01*
X263468Y509750D02*X264218Y509000D01*
X263468Y509750D02*X264218Y510500D01*
X266468D01*
X267218Y509750D01*
X263468Y508250D02*X264218Y507500D01*
X269019Y512000D02*Y511250D01*
Y509750D02*Y507500D01*
X270521Y509750D02*Y508250D01*
Y509750D02*X271271Y510500D01*
X272771D01*
X273521Y509750D01*
Y508250D01*
X272771Y507500D02*X273521Y508250D01*
X271271Y507500D02*X272771D01*
X270521Y508250D02*X271271Y507500D01*
X276072Y509750D02*Y507500D01*
Y509750D02*X276822Y510500D01*
X277572D01*
X278322Y509750D01*
Y507500D01*
X275322Y510500D02*X276072Y509750D01*
X280874Y507500D02*X283124D01*
X283874Y508250D01*
X283124Y509000D02*X283874Y508250D01*
X280874Y509000D02*X283124D01*
X280124Y509750D02*X280874Y509000D01*
X280124Y509750D02*X280874Y510500D01*
X283124D01*
X283874Y509750D01*
X280124Y508250D02*X280874Y507500D01*
X285675Y511250D02*X286425D01*
X285675Y509750D02*X286425D01*
X293177Y513500D02*X293927Y512750D01*
X291677Y513500D02*X293177D01*
X290927Y512750D02*X291677Y513500D01*
X290927Y512750D02*Y508250D01*
X291677Y507500D01*
X293177Y510500D02*X293927Y509750D01*
X290927Y510500D02*X293177D01*
X291677Y507500D02*X293177D01*
X293927Y508250D01*
Y509750D02*Y508250D01*
X295728D02*X296478Y507500D01*
X295728Y512750D02*Y508250D01*
Y512750D02*X296478Y513500D01*
X297978D01*
X298728Y512750D01*
Y508250D01*
X297978Y507500D02*X298728Y508250D01*
X296478Y507500D02*X297978D01*
X295728Y509000D02*X298728Y512000D01*
X300530Y508250D02*X301280Y507500D01*
X300530Y512750D02*Y508250D01*
Y512750D02*X301280Y513500D01*
X302780D01*
X303530Y512750D01*
Y508250D01*
X302780Y507500D02*X303530Y508250D01*
X301280Y507500D02*X302780D01*
X300530Y509000D02*X303530Y512000D01*
X305331Y508250D02*X306081Y507500D01*
X305331Y512750D02*Y508250D01*
Y512750D02*X306081Y513500D01*
X307581D01*
X308331Y512750D01*
Y508250D01*
X307581Y507500D02*X308331Y508250D01*
X306081Y507500D02*X307581D01*
X305331Y509000D02*X308331Y512000D01*
X313583Y509750D02*Y507500D01*
Y509750D02*X314333Y510500D01*
X315083D01*
X315833Y509750D01*
Y507500D01*
Y509750D02*X316583Y510500D01*
X317333D01*
X318083Y509750D01*
Y507500D01*
X312833Y510500D02*X313583Y509750D01*
X319884Y512000D02*Y511250D01*
Y509750D02*Y507500D01*
X321386Y513500D02*Y508250D01*
X322136Y507500D01*
X324387D02*X326637D01*
X327387Y508250D01*
X326637Y509000D02*X327387Y508250D01*
X324387Y509000D02*X326637D01*
X323637Y509750D02*X324387Y509000D01*
X323637Y509750D02*X324387Y510500D01*
X326637D01*
X327387Y509750D01*
X323637Y508250D02*X324387Y507500D01*
X331889Y510500D02*Y508250D01*
X332639Y507500D01*
X333389D01*
X334139Y508250D01*
Y510500D02*Y508250D01*
X334889Y507500D01*
X335639D01*
X336389Y508250D01*
Y510500D02*Y508250D01*
X338190Y512000D02*Y511250D01*
Y509750D02*Y507500D01*
X342692Y513500D02*Y507500D01*
X341942D02*X342692Y508250D01*
X340442Y507500D02*X341942D01*
X339692Y508250D02*X340442Y507500D01*
X339692Y509750D02*Y508250D01*
Y509750D02*X340442Y510500D01*
X341942D01*
X342692Y509750D01*
X345243Y507500D02*X347493D01*
X344493Y508250D02*X345243Y507500D01*
X344493Y509750D02*Y508250D01*
Y509750D02*X345243Y510500D01*
X346743D01*
X347493Y509750D01*
X344493Y509000D02*X347493D01*
Y509750D02*Y509000D01*
X349295Y506000D02*X350795Y507500D01*
X355296Y513500D02*X358296D01*
X355296D02*Y510500D01*
X356046Y511250D01*
X357546D01*
X358296Y510500D01*
Y508250D01*
X357546Y507500D02*X358296Y508250D01*
X356046Y507500D02*X357546D01*
X355296Y508250D02*X356046Y507500D01*
X360098Y508250D02*X360848Y507500D01*
X360098Y512750D02*Y508250D01*
Y512750D02*X360848Y513500D01*
X362348D01*
X363098Y512750D01*
Y508250D01*
X362348Y507500D02*X363098Y508250D01*
X360848Y507500D02*X362348D01*
X360098Y509000D02*X363098Y512000D01*
X364899Y508250D02*X365649Y507500D01*
X364899Y512750D02*Y508250D01*
Y512750D02*X365649Y513500D01*
X367149D01*
X367899Y512750D01*
Y508250D01*
X367149Y507500D02*X367899Y508250D01*
X365649Y507500D02*X367149D01*
X364899Y509000D02*X367899Y512000D01*
X369701Y508250D02*X370451Y507500D01*
X369701Y512750D02*Y508250D01*
Y512750D02*X370451Y513500D01*
X371951D01*
X372701Y512750D01*
Y508250D01*
X371951Y507500D02*X372701Y508250D01*
X370451Y507500D02*X371951D01*
X369701Y509000D02*X372701Y512000D01*
X377952Y509750D02*Y507500D01*
Y509750D02*X378702Y510500D01*
X379452D01*
X380202Y509750D01*
Y507500D01*
Y509750D02*X380952Y510500D01*
X381702D01*
X382452Y509750D01*
Y507500D01*
X377202Y510500D02*X377952Y509750D01*
X384254Y512000D02*Y511250D01*
Y509750D02*Y507500D01*
X385755Y513500D02*Y508250D01*
X386505Y507500D01*
X388757D02*X391007D01*
X391757Y508250D01*
X391007Y509000D02*X391757Y508250D01*
X388757Y509000D02*X391007D01*
X388007Y509750D02*X388757Y509000D01*
X388007Y509750D02*X388757Y510500D01*
X391007D01*
X391757Y509750D01*
X388007Y508250D02*X388757Y507500D01*
X396258Y513500D02*Y507500D01*
Y509750D02*X397008Y510500D01*
X398508D01*
X399258Y509750D01*
Y507500D01*
X401060Y512000D02*Y511250D01*
Y509750D02*Y507500D01*
X404811Y510500D02*X405561Y509750D01*
X403311Y510500D02*X404811D01*
X402561Y509750D02*X403311Y510500D01*
X402561Y509750D02*Y508250D01*
X403311Y507500D01*
X404811D01*
X405561Y508250D01*
X402561Y506000D02*X403311Y505250D01*
X404811D01*
X405561Y506000D01*
Y510500D02*Y506000D01*
X407363Y513500D02*Y507500D01*
Y509750D02*X408113Y510500D01*
X409613D01*
X410363Y509750D01*
Y507500D01*
X142226Y-9500D02*X145226D01*
X145976Y-8750D01*
Y-7250D02*Y-8750D01*
X145226Y-6500D02*X145976Y-7250D01*
X142976Y-6500D02*X145226D01*
X142976Y-3500D02*Y-9500D01*
X142226Y-3500D02*X145226D01*
X145976Y-4250D01*
Y-5750D01*
X145226Y-6500D02*X145976Y-5750D01*
X147777Y-7250D02*Y-8750D01*
Y-7250D02*X148527Y-6500D01*
X150027D01*
X150777Y-7250D01*
Y-8750D01*
X150027Y-9500D02*X150777Y-8750D01*
X148527Y-9500D02*X150027D01*
X147777Y-8750D02*X148527Y-9500D01*
X154829Y-6500D02*X155579Y-7250D01*
X153329Y-6500D02*X154829D01*
X152579Y-7250D02*X153329Y-6500D01*
X152579Y-7250D02*Y-8750D01*
X153329Y-9500D01*
X155579Y-6500D02*Y-8750D01*
X156329Y-9500D01*
X153329D02*X154829D01*
X155579Y-8750D01*
X158880Y-7250D02*Y-9500D01*
Y-7250D02*X159630Y-6500D01*
X161130D01*
X158130D02*X158880Y-7250D01*
X165932Y-3500D02*Y-9500D01*
X165182D02*X165932Y-8750D01*
X163682Y-9500D02*X165182D01*
X162932Y-8750D02*X163682Y-9500D01*
X162932Y-7250D02*Y-8750D01*
Y-7250D02*X163682Y-6500D01*
X165182D01*
X165932Y-7250D01*
X170433D02*Y-8750D01*
Y-7250D02*X171183Y-6500D01*
X172683D01*
X173433Y-7250D01*
Y-8750D01*
X172683Y-9500D02*X173433Y-8750D01*
X171183Y-9500D02*X172683D01*
X170433Y-8750D02*X171183Y-9500D01*
X175235Y-6500D02*Y-8750D01*
X175985Y-9500D01*
X177485D01*
X178235Y-8750D01*
Y-6500D02*Y-8750D01*
X180786Y-3500D02*Y-8750D01*
X181536Y-9500D01*
X180036Y-5750D02*X181536D01*
X183038Y-3500D02*Y-8750D01*
X183788Y-9500D01*
X185289Y-5000D02*Y-5750D01*
Y-7250D02*Y-9500D01*
X187541Y-7250D02*Y-9500D01*
Y-7250D02*X188291Y-6500D01*
X189041D01*
X189791Y-7250D01*
Y-9500D01*
X186791Y-6500D02*X187541Y-7250D01*
X192342Y-9500D02*X194592D01*
X191592Y-8750D02*X192342Y-9500D01*
X191592Y-7250D02*Y-8750D01*
Y-7250D02*X192342Y-6500D01*
X193842D01*
X194592Y-7250D01*
X191592Y-8000D02*X194592D01*
Y-7250D02*Y-8000D01*
X199094Y-5000D02*Y-5750D01*
Y-7250D02*Y-9500D01*
X201345D02*X203595D01*
X204345Y-8750D01*
X203595Y-8000D02*X204345Y-8750D01*
X201345Y-8000D02*X203595D01*
X200595Y-7250D02*X201345Y-8000D01*
X200595Y-7250D02*X201345Y-6500D01*
X203595D01*
X204345Y-7250D01*
X200595Y-8750D02*X201345Y-9500D01*
X209597Y-3500D02*Y-8750D01*
X210347Y-9500D01*
X208847Y-5750D02*X210347D01*
X211848Y-3500D02*Y-9500D01*
Y-7250D02*X212598Y-6500D01*
X214098D01*
X214848Y-7250D01*
Y-9500D01*
X217400D02*X219650D01*
X216650Y-8750D02*X217400Y-9500D01*
X216650Y-7250D02*Y-8750D01*
Y-7250D02*X217400Y-6500D01*
X218900D01*
X219650Y-7250D01*
X216650Y-8000D02*X219650D01*
Y-7250D02*Y-8000D01*
X224901Y-6500D02*X227151D01*
X224151Y-7250D02*X224901Y-6500D01*
X224151Y-7250D02*Y-8750D01*
X224901Y-9500D01*
X227151D01*
X229703D02*X231953D01*
X228953Y-8750D02*X229703Y-9500D01*
X228953Y-7250D02*Y-8750D01*
Y-7250D02*X229703Y-6500D01*
X231203D01*
X231953Y-7250D01*
X228953Y-8000D02*X231953D01*
Y-7250D02*Y-8000D01*
X234504Y-7250D02*Y-9500D01*
Y-7250D02*X235254Y-6500D01*
X236004D01*
X236754Y-7250D01*
Y-9500D01*
X233754Y-6500D02*X234504Y-7250D01*
X239306Y-3500D02*Y-8750D01*
X240056Y-9500D01*
X238556Y-5750D02*X240056D01*
X242307Y-9500D02*X244557D01*
X241557Y-8750D02*X242307Y-9500D01*
X241557Y-7250D02*Y-8750D01*
Y-7250D02*X242307Y-6500D01*
X243807D01*
X244557Y-7250D01*
X241557Y-8000D02*X244557D01*
Y-7250D02*Y-8000D01*
X247109Y-7250D02*Y-9500D01*
Y-7250D02*X247859Y-6500D01*
X249359D01*
X246359D02*X247109Y-7250D01*
X251160Y-3500D02*Y-8750D01*
X251910Y-9500D01*
X253412Y-5000D02*Y-5750D01*
Y-7250D02*Y-9500D01*
X255663Y-7250D02*Y-9500D01*
Y-7250D02*X256413Y-6500D01*
X257163D01*
X257913Y-7250D01*
Y-9500D01*
X254913Y-6500D02*X255663Y-7250D01*
X260465Y-9500D02*X262715D01*
X259715Y-8750D02*X260465Y-9500D01*
X259715Y-7250D02*Y-8750D01*
Y-7250D02*X260465Y-6500D01*
X261965D01*
X262715Y-7250D01*
X259715Y-8000D02*X262715D01*
Y-7250D02*Y-8000D01*
X267216Y-7250D02*Y-8750D01*
Y-7250D02*X267966Y-6500D01*
X269466D01*
X270216Y-7250D01*
Y-8750D01*
X269466Y-9500D02*X270216Y-8750D01*
X267966Y-9500D02*X269466D01*
X267216Y-8750D02*X267966Y-9500D01*
X272768Y-4250D02*Y-9500D01*
Y-4250D02*X273518Y-3500D01*
X274268D01*
X272018Y-6500D02*X273518D01*
X279219Y-3500D02*Y-8750D01*
X279969Y-9500D01*
X278469Y-5750D02*X279969D01*
X281471Y-3500D02*Y-9500D01*
Y-7250D02*X282221Y-6500D01*
X283721D01*
X284471Y-7250D01*
Y-9500D01*
X286272Y-5000D02*Y-5750D01*
Y-7250D02*Y-9500D01*
X288524D02*X290774D01*
X291524Y-8750D01*
X290774Y-8000D02*X291524Y-8750D01*
X288524Y-8000D02*X290774D01*
X287774Y-7250D02*X288524Y-8000D01*
X287774Y-7250D02*X288524Y-6500D01*
X290774D01*
X291524Y-7250D01*
X287774Y-8750D02*X288524Y-9500D01*
X296775D02*X298275D01*
X297525Y-3500D02*Y-9500D01*
X296025Y-5000D02*X297525Y-3500D01*
X300077Y-8750D02*X300827Y-9500D01*
X300077Y-4250D02*Y-8750D01*
Y-4250D02*X300827Y-3500D01*
X302327D01*
X303077Y-4250D01*
Y-8750D01*
X302327Y-9500D02*X303077Y-8750D01*
X300827Y-9500D02*X302327D01*
X300077Y-8000D02*X303077Y-5000D01*
X308328Y-7250D02*Y-9500D01*
Y-7250D02*X309078Y-6500D01*
X309828D01*
X310578Y-7250D01*
Y-9500D01*
Y-7250D02*X311328Y-6500D01*
X312078D01*
X312828Y-7250D01*
Y-9500D01*
X307578Y-6500D02*X308328Y-7250D01*
X314630Y-5000D02*Y-5750D01*
Y-7250D02*Y-9500D01*
X316131Y-3500D02*Y-8750D01*
X316881Y-9500D01*
X321833Y-7250D02*Y-9500D01*
Y-7250D02*X322583Y-6500D01*
X324083D01*
X321083D02*X321833Y-7250D01*
X326634Y-9500D02*X328884D01*
X325884Y-8750D02*X326634Y-9500D01*
X325884Y-7250D02*Y-8750D01*
Y-7250D02*X326634Y-6500D01*
X328134D01*
X328884Y-7250D01*
X325884Y-8000D02*X328884D01*
Y-7250D02*Y-8000D01*
X331436Y-6500D02*X333686D01*
X330686Y-7250D02*X331436Y-6500D01*
X330686Y-7250D02*Y-8750D01*
X331436Y-9500D01*
X333686D01*
X336237Y-3500D02*Y-8750D01*
X336987Y-9500D01*
X335487Y-5750D02*X336987D01*
X340739Y-6500D02*X341489Y-7250D01*
X339239Y-6500D02*X340739D01*
X338489Y-7250D02*X339239Y-6500D01*
X338489Y-7250D02*Y-8750D01*
X339239Y-9500D01*
X341489Y-6500D02*Y-8750D01*
X342239Y-9500D01*
X339239D02*X340739D01*
X341489Y-8750D01*
X344790Y-7250D02*Y-9500D01*
Y-7250D02*X345540Y-6500D01*
X346290D01*
X347040Y-7250D01*
Y-9500D01*
X344040Y-6500D02*X344790Y-7250D01*
X351092Y-6500D02*X351842Y-7250D01*
X349592Y-6500D02*X351092D01*
X348842Y-7250D02*X349592Y-6500D01*
X348842Y-7250D02*Y-8750D01*
X349592Y-9500D01*
X351092D01*
X351842Y-8750D01*
X348842Y-11000D02*X349592Y-11750D01*
X351092D01*
X351842Y-11000D01*
Y-6500D02*Y-11000D01*
X353643Y-3500D02*Y-8750D01*
X354393Y-9500D01*
X356645D02*X358895D01*
X355895Y-8750D02*X356645Y-9500D01*
X355895Y-7250D02*Y-8750D01*
Y-7250D02*X356645Y-6500D01*
X358145D01*
X358895Y-7250D01*
X355895Y-8000D02*X358895D01*
Y-7250D02*Y-8000D01*
X363396Y-6500D02*X366396D01*
X370898Y-8750D02*X371648Y-9500D01*
X370898Y-4250D02*Y-8750D01*
Y-4250D02*X371648Y-3500D01*
X373148D01*
X373898Y-4250D01*
Y-8750D01*
X373148Y-9500D02*X373898Y-8750D01*
X371648Y-9500D02*X373148D01*
X370898Y-8000D02*X373898Y-5000D01*
X375699Y-11000D02*X377199Y-9500D01*
X379001Y-8750D02*X379751Y-9500D01*
X379001Y-4250D02*Y-8750D01*
Y-4250D02*X379751Y-3500D01*
X381251D01*
X382001Y-4250D01*
Y-8750D01*
X381251Y-9500D02*X382001Y-8750D01*
X379751Y-9500D02*X381251D01*
X379001Y-8000D02*X382001Y-5000D01*
X387252Y-3500D02*Y-8750D01*
X388002Y-9500D01*
X386502Y-5750D02*X388002D01*
X389504Y-7250D02*Y-8750D01*
Y-7250D02*X390254Y-6500D01*
X391754D01*
X392504Y-7250D01*
Y-8750D01*
X391754Y-9500D02*X392504Y-8750D01*
X390254Y-9500D02*X391754D01*
X389504Y-8750D02*X390254Y-9500D01*
X399255Y-3500D02*X400005Y-4250D01*
X397755Y-3500D02*X399255D01*
X397005Y-4250D02*X397755Y-3500D01*
X397005Y-4250D02*Y-8750D01*
X397755Y-9500D01*
X399255Y-6500D02*X400005Y-7250D01*
X397005Y-6500D02*X399255D01*
X397755Y-9500D02*X399255D01*
X400005Y-8750D01*
Y-7250D02*Y-8750D01*
X401807D02*X402557Y-9500D01*
X401807Y-4250D02*Y-8750D01*
Y-4250D02*X402557Y-3500D01*
X404057D01*
X404807Y-4250D01*
Y-8750D01*
X404057Y-9500D02*X404807Y-8750D01*
X402557Y-9500D02*X404057D01*
X401807Y-8000D02*X404807Y-5000D01*
X406608Y-8750D02*X407358Y-9500D01*
X406608Y-4250D02*Y-8750D01*
Y-4250D02*X407358Y-3500D01*
X408858D01*
X409608Y-4250D01*
Y-8750D01*
X408858Y-9500D02*X409608Y-8750D01*
X407358Y-9500D02*X408858D01*
X406608Y-8000D02*X409608Y-5000D01*
X411410Y-8750D02*X412160Y-9500D01*
X411410Y-4250D02*Y-8750D01*
Y-4250D02*X412160Y-3500D01*
X413660D01*
X414410Y-4250D01*
Y-8750D01*
X413660Y-9500D02*X414410Y-8750D01*
X412160Y-9500D02*X413660D01*
X411410Y-8000D02*X414410Y-5000D01*
X416211Y-11000D02*X417711Y-9500D01*
X419513Y-3500D02*X422513D01*
X419513D02*Y-6500D01*
X420263Y-5750D01*
X421763D01*
X422513Y-6500D01*
Y-8750D01*
X421763Y-9500D02*X422513Y-8750D01*
X420263Y-9500D02*X421763D01*
X419513Y-8750D02*X420263Y-9500D01*
X424314Y-8750D02*X425064Y-9500D01*
X424314Y-4250D02*Y-8750D01*
Y-4250D02*X425064Y-3500D01*
X426564D01*
X427314Y-4250D01*
Y-8750D01*
X426564Y-9500D02*X427314Y-8750D01*
X425064Y-9500D02*X426564D01*
X424314Y-8000D02*X427314Y-5000D01*
X429116Y-8750D02*X429866Y-9500D01*
X429116Y-4250D02*Y-8750D01*
Y-4250D02*X429866Y-3500D01*
X431366D01*
X432116Y-4250D01*
Y-8750D01*
X431366Y-9500D02*X432116Y-8750D01*
X429866Y-9500D02*X431366D01*
X429116Y-8000D02*X432116Y-5000D01*
X433917Y-8750D02*X434667Y-9500D01*
X433917Y-4250D02*Y-8750D01*
Y-4250D02*X434667Y-3500D01*
X436167D01*
X436917Y-4250D01*
Y-8750D01*
X436167Y-9500D02*X436917Y-8750D01*
X434667Y-9500D02*X436167D01*
X433917Y-8000D02*X436917Y-5000D01*
X442169Y-7250D02*Y-9500D01*
Y-7250D02*X442919Y-6500D01*
X443669D01*
X444419Y-7250D01*
Y-9500D01*
Y-7250D02*X445169Y-6500D01*
X445919D01*
X446669Y-7250D01*
Y-9500D01*
X441419Y-6500D02*X442169Y-7250D01*
X448470Y-5000D02*Y-5750D01*
Y-7250D02*Y-9500D01*
X449972Y-3500D02*Y-8750D01*
X450722Y-9500D01*
X452973D02*X455223D01*
X455973Y-8750D01*
X455223Y-8000D02*X455973Y-8750D01*
X452973Y-8000D02*X455223D01*
X452223Y-7250D02*X452973Y-8000D01*
X452223Y-7250D02*X452973Y-6500D01*
X455223D01*
X455973Y-7250D01*
X452223Y-8750D02*X452973Y-9500D01*
X200750Y528500D02*Y522500D01*
X203000Y528500D02*X203750Y527750D01*
Y523250D01*
X203000Y522500D02*X203750Y523250D01*
X200000Y522500D02*X203000D01*
X200000Y528500D02*X203000D01*
X207801Y525500D02*X208551Y524750D01*
X206301Y525500D02*X207801D01*
X205551Y524750D02*X206301Y525500D01*
X205551Y524750D02*Y523250D01*
X206301Y522500D01*
X208551Y525500D02*Y523250D01*
X209301Y522500D01*
X206301D02*X207801D01*
X208551Y523250D01*
X211853Y528500D02*Y523250D01*
X212603Y522500D01*
X211103Y526250D02*X212603D01*
X214854Y522500D02*X217104D01*
X214104Y523250D02*X214854Y522500D01*
X214104Y524750D02*Y523250D01*
Y524750D02*X214854Y525500D01*
X216354D01*
X217104Y524750D01*
X214104Y524000D02*X217104D01*
Y524750D02*Y524000D01*
X218906Y526250D02*X219656D01*
X218906Y524750D02*X219656D01*
X224157Y528500D02*X227157D01*
X225657D02*Y522500D01*
X228959Y528500D02*Y522500D01*
Y524750D02*X229709Y525500D01*
X231209D01*
X231959Y524750D01*
Y522500D01*
X233760Y525500D02*Y523250D01*
X234510Y522500D01*
X236010D01*
X236760Y523250D01*
Y525500D02*Y523250D01*
X241262D02*X242012Y522500D01*
X241262Y527750D02*Y523250D01*
Y527750D02*X242012Y528500D01*
X243512D01*
X244262Y527750D01*
Y523250D01*
X243512Y522500D02*X244262Y523250D01*
X242012Y522500D02*X243512D01*
X241262Y524000D02*X244262Y527000D01*
X246063Y528500D02*X249063D01*
X246063D02*Y525500D01*
X246813Y526250D01*
X248313D01*
X249063Y525500D01*
Y523250D01*
X248313Y522500D02*X249063Y523250D01*
X246813Y522500D02*X248313D01*
X246063Y523250D02*X246813Y522500D01*
X253565Y528500D02*Y522500D01*
Y528500D02*X255815Y526250D01*
X258065Y528500D01*
Y522500D01*
X262116Y525500D02*X262866Y524750D01*
X260616Y525500D02*X262116D01*
X259866Y524750D02*X260616Y525500D01*
X259866Y524750D02*Y523250D01*
X260616Y522500D01*
X262866Y525500D02*Y523250D01*
X263616Y522500D01*
X260616D02*X262116D01*
X262866Y523250D01*
X265418Y525500D02*Y523250D01*
X266168Y522500D01*
X268418Y525500D02*Y521000D01*
X267668Y520250D02*X268418Y521000D01*
X266168Y520250D02*X267668D01*
X265418Y521000D02*X266168Y520250D01*
Y522500D02*X267668D01*
X268418Y523250D01*
X272919Y527750D02*X273669Y528500D01*
X275919D01*
X276669Y527750D01*
Y526250D01*
X272919Y522500D02*X276669Y526250D01*
X272919Y522500D02*X276669D01*
X278471Y523250D02*X279221Y522500D01*
X278471Y527750D02*Y523250D01*
Y527750D02*X279221Y528500D01*
X280721D01*
X281471Y527750D01*
Y523250D01*
X280721Y522500D02*X281471Y523250D01*
X279221Y522500D02*X280721D01*
X278471Y524000D02*X281471Y527000D01*
X284022Y522500D02*X285522D01*
X284772Y528500D02*Y522500D01*
X283272Y527000D02*X284772Y528500D01*
X288074Y522500D02*X289574D01*
X288824Y528500D02*Y522500D01*
X287324Y527000D02*X288824Y528500D01*
X294075Y523250D02*X294825Y522500D01*
X294075Y527750D02*Y523250D01*
Y527750D02*X294825Y528500D01*
X296325D01*
X297075Y527750D01*
Y523250D01*
X296325Y522500D02*X297075Y523250D01*
X294825Y522500D02*X296325D01*
X294075Y524000D02*X297075Y527000D01*
X298877Y522500D02*X302627Y526250D01*
Y528500D02*Y526250D01*
X298877Y528500D02*X302627D01*
X304428Y526250D02*X305178D01*
X304428Y524750D02*X305178D01*
X306980Y527750D02*X307730Y528500D01*
X309980D01*
X310730Y527750D01*
Y526250D01*
X306980Y522500D02*X310730Y526250D01*
X306980Y522500D02*X310730D01*
X312531Y528500D02*X315531D01*
X312531D02*Y525500D01*
X313281Y526250D01*
X314781D01*
X315531Y525500D01*
Y523250D01*
X314781Y522500D02*X315531Y523250D01*
X313281Y522500D02*X314781D01*
X312531Y523250D02*X313281Y522500D01*
X317333Y526250D02*X318083D01*
X317333Y524750D02*X318083D01*
X319884Y527750D02*X320634Y528500D01*
X322884D01*
X323634Y527750D01*
Y526250D01*
X319884Y522500D02*X323634Y526250D01*
X319884Y522500D02*X323634D01*
X325436Y523250D02*X326186Y522500D01*
X325436Y527750D02*Y523250D01*
Y527750D02*X326186Y528500D01*
X327686D01*
X328436Y527750D01*
Y523250D01*
X327686Y522500D02*X328436Y523250D01*
X326186Y522500D02*X327686D01*
X325436Y524000D02*X328436Y527000D01*
X332937Y527750D02*Y522500D01*
Y527750D02*X333687Y528500D01*
X335937D01*
X336687Y527750D01*
Y522500D01*
X332937Y525500D02*X336687D01*
X338489Y528500D02*Y522500D01*
Y528500D02*X340739Y526250D01*
X342989Y528500D01*
Y522500D01*
X350490Y528500D02*X351240Y527750D01*
X348240Y528500D02*X350490D01*
X347490Y527750D02*X348240Y528500D01*
X347490Y527750D02*Y523250D01*
X348240Y522500D01*
X350490D01*
X351240Y523250D01*
Y524750D02*Y523250D01*
X350490Y525500D02*X351240Y524750D01*
X348990Y525500D02*X350490D01*
X353042Y528500D02*Y522500D01*
Y528500D02*X355292Y526250D01*
X357542Y528500D01*
Y522500D01*
X359343Y528500D02*X362343D01*
X360843D02*Y522500D01*
X366845Y528500D02*Y523250D01*
X367595Y522500D01*
X369095D01*
X369845Y523250D01*
Y528500D02*Y523250D01*
X371646Y528500D02*X374646D01*
X373146D02*Y522500D01*
X377198D02*X379448D01*
X376448Y523250D02*X377198Y522500D01*
X376448Y527750D02*Y523250D01*
Y527750D02*X377198Y528500D01*
X379448D01*
X200000Y542750D02*Y537500D01*
Y542750D02*X200750Y543500D01*
X203000D01*
X203750Y542750D01*
Y537500D01*
X200000Y540500D02*X203750D01*
X205551D02*Y538250D01*
X206301Y537500D01*
X207801D01*
X208551Y538250D01*
Y540500D02*Y538250D01*
X211103Y543500D02*Y538250D01*
X211853Y537500D01*
X210353Y541250D02*X211853D01*
X213354Y543500D02*Y537500D01*
Y539750D02*X214104Y540500D01*
X215604D01*
X216354Y539750D01*
Y537500D01*
X218156Y539750D02*Y538250D01*
Y539750D02*X218906Y540500D01*
X220406D01*
X221156Y539750D01*
Y538250D01*
X220406Y537500D02*X221156Y538250D01*
X218906Y537500D02*X220406D01*
X218156Y538250D02*X218906Y537500D01*
X223707Y539750D02*Y537500D01*
Y539750D02*X224457Y540500D01*
X225957D01*
X222957D02*X223707Y539750D01*
X227759Y541250D02*X228509D01*
X227759Y539750D02*X228509D01*
X236010Y543500D02*X236760Y542750D01*
X233760Y543500D02*X236010D01*
X233010Y542750D02*X233760Y543500D01*
X233010Y542750D02*Y538250D01*
X233760Y537500D01*
X236010D01*
X236760Y538250D01*
Y539750D02*Y538250D01*
X236010Y540500D02*X236760Y539750D01*
X234510Y540500D02*X236010D01*
X240812D02*X241562Y539750D01*
X239312Y540500D02*X240812D01*
X238562Y539750D02*X239312Y540500D01*
X238562Y539750D02*Y538250D01*
X239312Y537500D01*
X241562Y540500D02*Y538250D01*
X242312Y537500D01*
X239312D02*X240812D01*
X241562Y538250D01*
X244113Y540500D02*Y539000D01*
X245613Y537500D01*
X247113Y539000D01*
Y540500D02*Y539000D01*
X248915Y542000D02*Y541250D01*
Y539750D02*Y537500D01*
X251166Y539750D02*Y537500D01*
Y539750D02*X251916Y540500D01*
X252666D01*
X253416Y539750D01*
Y537500D01*
X250416Y540500D02*X251166Y539750D01*
X257918Y543500D02*Y537500D01*
X261668Y543500D02*Y537500D01*
X257918Y540500D02*X261668D01*
X263469D02*Y538250D01*
X264219Y537500D01*
X265719D01*
X266469Y538250D01*
Y540500D02*Y538250D01*
X269021Y539750D02*Y537500D01*
Y539750D02*X269771Y540500D01*
X271271D01*
X268271D02*X269021Y539750D01*
X273072Y543500D02*Y538250D01*
X273822Y537500D01*
X275324Y543500D02*Y537500D01*
Y538250D02*X276074Y537500D01*
X277574D01*
X278324Y538250D01*
Y539750D02*Y538250D01*
X277574Y540500D02*X278324Y539750D01*
X276074Y540500D02*X277574D01*
X275324Y539750D02*X276074Y540500D01*
X280125D02*Y538250D01*
X280875Y537500D01*
X282375D01*
X283125Y538250D01*
Y540500D02*Y538250D01*
X285677Y543500D02*Y538250D01*
X286427Y537500D01*
X284927Y541250D02*X286427D01*
X200000Y558500D02*X203000D01*
X201500D02*Y552500D01*
X204801Y557000D02*Y556250D01*
Y554750D02*Y552500D01*
X207053Y558500D02*Y553250D01*
X207803Y552500D01*
X206303Y556250D02*X207803D01*
X209304Y558500D02*Y553250D01*
X210054Y552500D01*
X212306D02*X214556D01*
X211556Y553250D02*X212306Y552500D01*
X211556Y554750D02*Y553250D01*
Y554750D02*X212306Y555500D01*
X213806D01*
X214556Y554750D01*
X211556Y554000D02*X214556D01*
Y554750D02*Y554000D01*
X216357Y556250D02*X217107D01*
X216357Y554750D02*X217107D01*
X221609Y553250D02*X222359Y552500D01*
X221609Y557750D02*X222359Y558500D01*
X221609Y557750D02*Y553250D01*
X224160Y555500D02*Y553250D01*
X224910Y552500D01*
X226410D01*
X227160Y553250D01*
Y555500D02*Y553250D01*
X229712Y554750D02*Y552500D01*
Y554750D02*X230462Y555500D01*
X231212D01*
X231962Y554750D01*
Y552500D01*
X228962Y555500D02*X229712Y554750D01*
X233763Y558500D02*Y552500D01*
Y554750D02*X236013Y552500D01*
X233763Y554750D02*X235263Y556250D01*
X238565Y554750D02*Y552500D01*
Y554750D02*X239315Y555500D01*
X240065D01*
X240815Y554750D01*
Y552500D01*
X237815Y555500D02*X238565Y554750D01*
X242616D02*Y553250D01*
Y554750D02*X243366Y555500D01*
X244866D01*
X245616Y554750D01*
Y553250D01*
X244866Y552500D02*X245616Y553250D01*
X243366Y552500D02*X244866D01*
X242616Y553250D02*X243366Y552500D01*
X247418Y555500D02*Y553250D01*
X248168Y552500D01*
X248918D01*
X249668Y553250D01*
Y555500D02*Y553250D01*
X250418Y552500D01*
X251168D01*
X251918Y553250D01*
Y555500D02*Y553250D01*
X254469Y554750D02*Y552500D01*
Y554750D02*X255219Y555500D01*
X255969D01*
X256719Y554750D01*
Y552500D01*
X253719Y555500D02*X254469Y554750D01*
X258521Y558500D02*X259271Y557750D01*
Y553250D01*
X258521Y552500D02*X259271Y553250D01*
X263772Y555500D02*X266772D01*
X271274Y558500D02*Y552500D01*
Y558500D02*X274274D01*
X271274Y555500D02*X273524D01*
X278325D02*X279075Y554750D01*
X276825Y555500D02*X278325D01*
X276075Y554750D02*X276825Y555500D01*
X276075Y554750D02*Y553250D01*
X276825Y552500D01*
X279075Y555500D02*Y553250D01*
X279825Y552500D01*
X276825D02*X278325D01*
X279075Y553250D01*
X281627Y558500D02*Y552500D01*
Y553250D02*X282377Y552500D01*
X283877D01*
X284627Y553250D01*
Y554750D02*Y553250D01*
X283877Y555500D02*X284627Y554750D01*
X282377Y555500D02*X283877D01*
X281627Y554750D02*X282377Y555500D01*
X287178Y554750D02*Y552500D01*
Y554750D02*X287928Y555500D01*
X289428D01*
X286428D02*X287178Y554750D01*
X291230Y557000D02*Y556250D01*
Y554750D02*Y552500D01*
X293481Y555500D02*X295731D01*
X292731Y554750D02*X293481Y555500D01*
X292731Y554750D02*Y553250D01*
X293481Y552500D01*
X295731D01*
X299783Y555500D02*X300533Y554750D01*
X298283Y555500D02*X299783D01*
X297533Y554750D02*X298283Y555500D01*
X297533Y554750D02*Y553250D01*
X298283Y552500D01*
X300533Y555500D02*Y553250D01*
X301283Y552500D01*
X298283D02*X299783D01*
X300533Y553250D01*
X303834Y558500D02*Y553250D01*
X304584Y552500D01*
X303084Y556250D02*X304584D01*
X306086Y557000D02*Y556250D01*
Y554750D02*Y552500D01*
X307587Y554750D02*Y553250D01*
Y554750D02*X308337Y555500D01*
X309837D01*
X310587Y554750D01*
Y553250D01*
X309837Y552500D02*X310587Y553250D01*
X308337Y552500D02*X309837D01*
X307587Y553250D02*X308337Y552500D01*
X313139Y554750D02*Y552500D01*
Y554750D02*X313889Y555500D01*
X314639D01*
X315389Y554750D01*
Y552500D01*
X312389Y555500D02*X313139Y554750D01*
X320640Y558500D02*Y552500D01*
X322890Y558500D02*X323640Y557750D01*
Y553250D01*
X322890Y552500D02*X323640Y553250D01*
X319890Y552500D02*X322890D01*
X319890Y558500D02*X322890D01*
X326192Y554750D02*Y552500D01*
Y554750D02*X326942Y555500D01*
X328442D01*
X325442D02*X326192Y554750D01*
X332493Y555500D02*X333243Y554750D01*
X330993Y555500D02*X332493D01*
X330243Y554750D02*X330993Y555500D01*
X330243Y554750D02*Y553250D01*
X330993Y552500D01*
X333243Y555500D02*Y553250D01*
X333993Y552500D01*
X330993D02*X332493D01*
X333243Y553250D01*
X335795Y555500D02*Y553250D01*
X336545Y552500D01*
X337295D01*
X338045Y553250D01*
Y555500D02*Y553250D01*
X338795Y552500D01*
X339545D01*
X340295Y553250D01*
Y555500D02*Y553250D01*
X342096Y557000D02*Y556250D01*
Y554750D02*Y552500D01*
X344348Y554750D02*Y552500D01*
Y554750D02*X345098Y555500D01*
X345848D01*
X346598Y554750D01*
Y552500D01*
X343598Y555500D02*X344348Y554750D01*
X350649Y555500D02*X351399Y554750D01*
X349149Y555500D02*X350649D01*
X348399Y554750D02*X349149Y555500D01*
X348399Y554750D02*Y553250D01*
X349149Y552500D01*
X350649D01*
X351399Y553250D01*
X348399Y551000D02*X349149Y550250D01*
X350649D01*
X351399Y551000D01*
Y555500D02*Y551000D01*
M02*
