G04 start of page 7 for group -4079 idx -4079 *
G04 Title: (unknown), topsilk *
G04 Creator: pcb 20091103 *
G04 CreationDate: Thu 05 May 2011 07:25:20 AM GMT UTC *
G04 For: gjhurlbu *
G04 Format: Gerber/RS-274X *
G04 PCB-Dimensions: 600000 500000 *
G04 PCB-Coordinate-Origin: lower left *
%MOIN*%
%FSLAX25Y25*%
%LNFRONTSILK*%
%ADD11C,0.0150*%
%ADD42C,0.0100*%
%ADD43C,0.0080*%
G54D11*X40000Y456000D02*Y361000D01*
X259000D01*
Y456000D01*
X40000D01*
G54D42*X46000Y366500D02*X46500Y366000D01*
X46000Y369500D02*X46500Y370000D01*
X46000Y369500D02*Y366500D01*
X48201Y368000D02*X49701D01*
X47701Y367500D02*X48201Y368000D01*
X47701Y367500D02*Y366500D01*
X48201Y366000D01*
X49701D01*
X50902Y370000D02*X51402Y369500D01*
Y366500D01*
X50902Y366000D02*X51402Y366500D01*
X54403Y369500D02*X54903Y370000D01*
X56403D01*
X56903Y369500D01*
Y368500D01*
X54403Y366000D02*X56903Y368500D01*
X54403Y366000D02*X56903D01*
X58104Y366500D02*X58604Y366000D01*
X58104Y369500D02*Y366500D01*
Y369500D02*X58604Y370000D01*
X59604D01*
X60104Y369500D01*
Y366500D01*
X59604Y366000D02*X60104Y366500D01*
X58604Y366000D02*X59604D01*
X58104Y367000D02*X60104Y369000D01*
X61805Y366000D02*X62805D01*
X62305Y370000D02*Y366000D01*
X61305Y369000D02*X62305Y370000D01*
X64506Y366000D02*X65506D01*
X65006Y370000D02*Y366000D01*
X64006Y369000D02*X65006Y370000D01*
X70507D02*X71007Y369500D01*
X69007Y370000D02*X70507D01*
X68507Y369500D02*X69007Y370000D01*
X68507Y369500D02*Y366500D01*
X69007Y366000D01*
X70507D01*
X71007Y366500D01*
Y367500D02*Y366500D01*
X70507Y368000D02*X71007Y367500D01*
X69507Y368000D02*X70507D01*
X73708D02*X74208Y367500D01*
X72708Y368000D02*X73708D01*
X72208Y367500D02*X72708Y368000D01*
X72208Y367500D02*Y366500D01*
X72708Y366000D01*
X74208Y368000D02*Y366500D01*
X74708Y366000D01*
X72708D02*X73708D01*
X74208Y366500D01*
X75909Y368000D02*Y367000D01*
X76909Y366000D01*
X77909Y367000D01*
Y368000D02*Y367000D01*
X79110Y369000D02*Y368500D01*
Y367500D02*Y366000D01*
X80611Y367500D02*Y366000D01*
Y367500D02*X81111Y368000D01*
X81611D01*
X82111Y367500D01*
Y366000D01*
X80111Y368000D02*X80611Y367500D01*
X85112Y370000D02*Y366000D01*
X87612Y370000D02*Y366000D01*
X85112Y368000D02*X87612D01*
X88813D02*Y366500D01*
X89313Y366000D01*
X90313D01*
X90813Y366500D01*
Y368000D02*Y366500D01*
X92514Y367500D02*Y366000D01*
Y367500D02*X93014Y368000D01*
X94014D01*
X92014D02*X92514Y367500D01*
X95215Y370000D02*Y366500D01*
X95715Y366000D01*
X96716Y370000D02*Y366000D01*
Y366500D02*X97216Y366000D01*
X98216D01*
X98716Y366500D01*
Y367500D02*Y366500D01*
X98216Y368000D02*X98716Y367500D01*
X97216Y368000D02*X98216D01*
X96716Y367500D02*X97216Y368000D01*
X99917D02*Y366500D01*
X100417Y366000D01*
X101417D01*
X101917Y366500D01*
Y368000D02*Y366500D01*
X103618Y370000D02*Y366500D01*
X104118Y366000D01*
X103118Y368500D02*X104118D01*
X46000Y378000D02*Y374000D01*
X48500Y378000D02*Y374000D01*
X46000Y376000D02*X48500D01*
X50201Y378000D02*Y374000D01*
X51701Y378000D02*X52201Y377500D01*
Y374500D01*
X51701Y374000D02*X52201Y374500D01*
X49701Y374000D02*X51701D01*
X49701Y378000D02*X51701D01*
X53402Y376000D02*X55402D01*
X57103Y378000D02*Y374000D01*
X56603Y378000D02*X58603D01*
X59103Y377500D01*
Y376500D01*
X58603Y376000D02*X59103Y376500D01*
X57103Y376000D02*X58603D01*
X60304Y378000D02*Y375000D01*
X61304Y374000D01*
X62304Y375000D01*
Y378000D02*Y375000D01*
X63505Y378000D02*X65505D01*
X66005Y377500D01*
Y376500D01*
X65505Y376000D02*X66005Y376500D01*
X64005Y376000D02*X65505D01*
X64005Y378000D02*Y374000D01*
Y376000D02*X66005Y374000D01*
X69006Y378000D02*Y374000D01*
Y376000D02*X71006Y378000D01*
X69006Y376000D02*X71006Y374000D01*
X72207Y377000D02*Y376500D01*
Y375500D02*Y374000D01*
X73208Y378000D02*Y374500D01*
X73708Y374000D01*
X74709Y378000D02*Y374500D01*
X75209Y374000D01*
X76710D02*X78210D01*
X76210Y374500D02*X76710Y374000D01*
X76210Y375500D02*Y374500D01*
Y375500D02*X76710Y376000D01*
X77710D01*
X78210Y375500D01*
X76210Y375000D02*X78210D01*
Y375500D02*Y375000D01*
X79911Y375500D02*Y374000D01*
Y375500D02*X80411Y376000D01*
X81411D01*
X79411D02*X79911Y375500D01*
X112500Y367500D02*Y366000D01*
Y367500D02*X113000Y368000D01*
X114000D01*
X112000D02*X112500Y367500D01*
X115701Y366000D02*X117201D01*
X115201Y366500D02*X115701Y366000D01*
X115201Y367500D02*Y366500D01*
Y367500D02*X115701Y368000D01*
X116701D01*
X117201Y367500D01*
X115201Y367000D02*X117201D01*
Y367500D02*Y367000D01*
X118402Y368000D02*Y367000D01*
X119402Y366000D01*
X120402Y367000D01*
Y368000D02*Y367000D01*
X123903Y366000D02*X124903D01*
X124403Y370000D02*Y366000D01*
X123403Y369000D02*X124403Y370000D01*
X126104Y366000D02*X126604D01*
X127805Y366500D02*X128305Y366000D01*
X127805Y369500D02*Y366500D01*
Y369500D02*X128305Y370000D01*
X129305D01*
X129805Y369500D01*
Y366500D01*
X129305Y366000D02*X129805Y366500D01*
X128305Y366000D02*X129305D01*
X127805Y367000D02*X129805Y369000D01*
G54D43*X82064Y396148D02*X82850D01*
X82064Y390638D02*X82850D01*
G54D42*X82400Y433300D02*X120200D01*
X82400D02*Y398400D01*
X120200D01*
Y413400D02*Y398400D01*
Y433300D02*Y418400D01*
G75*G03X120200Y413400I0J-2500D01*G01*
G54D43*X108150Y387852D02*X108936D01*
X108150Y393362D02*X108936D01*
G54D42*X133700Y393500D02*Y380700D01*
X119800D02*X133700D01*
X119800Y393500D02*Y380700D01*
Y393500D02*X133700D01*
X139000Y428000D02*X161000D01*
X150000Y437500D02*Y431000D01*
Y393500D02*Y386500D01*
X139000Y431000D02*X161000D01*
X139000Y393500D02*X161000D01*
Y431000D02*Y393500D01*
X139000Y431000D02*Y393500D01*
X240000Y450000D02*Y430000D01*
X230000Y450000D02*X240000D01*
X230000D02*Y430000D01*
X240000D01*
X230000Y440000D02*X240000D01*
X230000D02*Y430000D01*
X220000Y364000D02*X255400D01*
X220000Y424000D02*Y364000D01*
X255400Y424000D02*Y364000D01*
X220000Y424000D02*X255400D01*
X167750Y369650D02*X212250D01*
X167750Y450350D02*Y369650D01*
Y450350D02*X212250D01*
Y369650D01*
X48059Y437661D02*X49559D01*
X47559Y438161D02*X48059Y437661D01*
X47559Y441161D02*Y438161D01*
Y441161D02*X48059Y441661D01*
X49559D01*
X50760Y441161D02*Y438161D01*
Y441161D02*X51260Y441661D01*
X52260D01*
X52760Y441161D01*
Y438161D01*
X52260Y437661D02*X52760Y438161D01*
X51260Y437661D02*X52260D01*
X50760Y438161D02*X51260Y437661D01*
X53961Y441661D02*Y437661D01*
Y441661D02*Y441161D01*
X56461Y438661D01*
Y441661D02*Y437661D01*
X57662Y441661D02*Y437661D01*
Y441661D02*Y441161D01*
X60162Y438661D01*
Y441661D02*Y437661D01*
X61863D02*X62863D01*
X62363Y441661D02*Y437661D01*
X61363Y440661D02*X62363Y441661D01*
X112800Y441100D02*Y437600D01*
X113300Y437100D01*
X114300D01*
X114800Y437600D01*
Y441100D02*Y437600D01*
X116501Y437100D02*X117501D01*
X117001Y441100D02*Y437100D01*
X116001Y440100D02*X117001Y441100D01*
X160250Y448250D02*Y444250D01*
Y446250D02*X162250Y448250D01*
X160250Y446250D02*X162250Y444250D01*
X163951D02*X164951D01*
X164451Y448250D02*Y444250D01*
X163451Y447250D02*X164451Y448250D01*
X78494Y384020D02*X79994D01*
X77994Y384520D02*X78494Y384020D01*
X77994Y387520D02*Y384520D01*
Y387520D02*X78494Y388020D01*
X79994D01*
X81195Y386020D02*X83195Y388020D01*
X81195Y386020D02*X83695D01*
X83195Y388020D02*Y384020D01*
X104179Y384971D02*X106179D01*
X106679Y384471D01*
Y383471D01*
X106179Y382971D02*X106679Y383471D01*
X104679Y382971D02*X106179D01*
X104679Y384971D02*Y380971D01*
Y382971D02*X106679Y380971D01*
X108380D02*X109380D01*
X108880Y384971D02*Y380971D01*
X107880Y383971D02*X108880Y384971D01*
X126700Y400000D02*Y397000D01*
Y400000D02*X127200Y400500D01*
X128200D01*
X128700Y400000D01*
Y397000D01*
X128200Y396500D02*X128700Y397000D01*
X127200Y396500D02*X128200D01*
X126700Y397000D02*X127200Y396500D01*
X127700Y397500D02*X128700Y396500D01*
X130401D02*X131401D01*
X130901Y400500D02*Y396500D01*
X129901Y399500D02*X130901Y400500D01*
X131500Y430000D02*Y426000D01*
X133000Y430000D02*X133500Y429500D01*
Y426500D01*
X133000Y426000D02*X133500Y426500D01*
X131000Y426000D02*X133000D01*
X131000Y430000D02*X133000D01*
X135201Y426000D02*X136201D01*
X135701Y430000D02*Y426000D01*
X134701Y429000D02*X135701Y430000D01*
X219000Y407000D02*Y405500D01*
X218500Y405000D02*X219000Y405500D01*
X215500Y405000D02*X218500D01*
X215500D02*X215000Y405500D01*
Y407000D02*Y405500D01*
X215500Y408201D02*X218500D01*
X215500D02*X215000Y408701D01*
Y409701D02*Y408701D01*
Y409701D02*X215500Y410201D01*
X218500D01*
X219000Y409701D02*X218500Y410201D01*
X219000Y409701D02*Y408701D01*
X218500Y408201D02*X219000Y408701D01*
X215000Y411402D02*X219000D01*
X215000D02*X215500D01*
X218000Y413902D01*
X215000D02*X219000D01*
X215000Y415103D02*X219000D01*
X215000D02*X215500D01*
X218000Y417603D01*
X215000D02*X219000D01*
X215500Y418804D02*X215000Y419304D01*
Y420804D02*Y419304D01*
Y420804D02*X215500Y421304D01*
X216500D01*
X219000Y418804D02*X216500Y421304D01*
X219000D02*Y418804D01*
X247000Y434000D02*Y432500D01*
X246500Y432000D02*X247000Y432500D01*
X243500Y432000D02*X246500D01*
X243500D02*X243000Y432500D01*
Y434000D02*Y432500D01*
X243500Y435201D02*X246500D01*
X243500D02*X243000Y435701D01*
Y436701D02*Y435701D01*
Y436701D02*X243500Y437201D01*
X246500D01*
X247000Y436701D02*X246500Y437201D01*
X247000Y436701D02*Y435701D01*
X246500Y435201D02*X247000Y435701D01*
X243000Y438402D02*X247000D01*
X243000D02*X243500D01*
X246000Y440902D01*
X243000D02*X247000D01*
X243000Y442103D02*X247000D01*
X243000D02*X243500D01*
X246000Y444603D01*
X243000D02*X247000D01*
X243500Y445804D02*X243000Y446304D01*
Y447304D02*Y446304D01*
Y447304D02*X243500Y447804D01*
X246500D01*
X247000Y447304D02*X246500Y447804D01*
X247000Y447304D02*Y446304D01*
X246500Y445804D02*X247000Y446304D01*
X245000Y447804D02*Y446304D01*
M02*
